<?xml version="1.0" encoding="UTF-8" standalone="no"?>
<!-- Created with Inkscape (http://www.inkscape.org/) -->
<svg
   xmlns:dc="http://purl.org/dc/elements/1.1/"
   xmlns:cc="http://creativecommons.org/ns#"
   xmlns:rdf="http://www.w3.org/1999/02/22-rdf-syntax-ns#"
   xmlns:svg="http://www.w3.org/2000/svg"
   xmlns="http://www.w3.org/2000/svg"
   xmlns:sodipodi="http://sodipodi.sourceforge.net/DTD/sodipodi-0.dtd"
   xmlns:inkscape="http://www.inkscape.org/namespaces/inkscape"
   width="744.09448819"
   height="1052.3622047"
   id="svg2"
   sodipodi:version="0.32"
   inkscape:version="0.46"
   sodipodi:docname="requirementmodule.svg"
   inkscape:output_extension="org.inkscape.output.svg.inkscape"
   inkscape:export-filename="/home/irisuser/iris/iris/images/requirementmodule.png"
   inkscape:export-xdpi="4.760705"
   inkscape:export-ydpi="4.760705">
  <defs
     id="defs4">
    <inkscape:perspective
       sodipodi:type="inkscape:persp3d"
       inkscape:vp_x="0 : 526.18109 : 1"
       inkscape:vp_y="0 : 1000 : 0"
       inkscape:vp_z="744.09448 : 526.18109 : 1"
       inkscape:persp3d-origin="372.04724 : 350.78739 : 1"
       id="perspective10" />
  </defs>
  <sodipodi:namedview
     id="base"
     pagecolor="#ffffff"
     bordercolor="#666666"
     borderopacity="1.0"
     gridtolerance="10000"
     guidetolerance="10"
     objecttolerance="10"
     inkscape:pageopacity="0.0"
     inkscape:pageshadow="2"
     inkscape:zoom="0.35"
     inkscape:cx="883.57143"
     inkscape:cy="520"
     inkscape:document-units="px"
     inkscape:current-layer="layer1"
     showgrid="false"
     inkscape:window-width="869"
     inkscape:window-height="726"
     inkscape:window-x="116"
     inkscape:window-y="31">
    <inkscape:grid
       type="xygrid"
       id="grid2412" />
  </sodipodi:namedview>
  <metadata
     id="metadata7">
    <rdf:RDF>
      <cc:Work
         rdf:about="">
        <dc:format>image/svg+xml</dc:format>
        <dc:type
           rdf:resource="http://purl.org/dc/dcmitype/StillImage" />
      </cc:Work>
    </rdf:RDF>
  </metadata>
  <g
     inkscape:label="Layer 1"
     inkscape:groupmode="layer"
     id="layer1">
    <g
       id="g2454">
      <g
         transform="matrix(0.4486803,0,0,0.430137,69.007124,162.65338)"
         id="g3199">
        <path
           sodipodi:type="arc"
           style="fill:none;fill-opacity:0.875;stroke:#000000;stroke-width:10;stroke-miterlimit:4;stroke-dasharray:none;stroke-opacity:0.96982757"
           id="path2383"
           sodipodi:cx="381.42856"
           sodipodi:cy="470.93362"
           sodipodi:rx="255.71428"
           sodipodi:ry="255.71428"
           d="M 637.14284,470.93362 A 255.71428,255.71428 0 1 1 125.71428,470.93362 A 255.71428,255.71428 0 1 1 637.14284,470.93362 z"
           transform="matrix(0.9336148,0,0,1.000654,28.178325,-0.3079831)" />
        <path
           sodipodi:type="arc"
           style="fill:none;fill-opacity:0.875;stroke:#000000;stroke-width:10;stroke-miterlimit:4;stroke-dasharray:none;stroke-opacity:0.96982757"
           id="path2385"
           sodipodi:cx="268.57144"
           sodipodi:cy="415.21933"
           sodipodi:rx="45.714287"
           sodipodi:ry="74.285713"
           d="M 314.28573,415.21933 A 45.714287,74.285713 0 1 1 222.85715,415.21933 A 45.714287,74.285713 0 1 1 314.28573,415.21933 z"
           transform="translate(8.5714286,-8.5714286)" />
        <path
           sodipodi:type="arc"
           style="fill:none;fill-opacity:0.875;stroke:#000000;stroke-width:10;stroke-miterlimit:4;stroke-dasharray:none;stroke-opacity:0.96982757"
           id="path2387"
           sodipodi:cx="268.57144"
           sodipodi:cy="415.21933"
           sodipodi:rx="45.714287"
           sodipodi:ry="74.285713"
           d="M 314.28573,415.21933 A 45.714287,74.285713 0 1 1 222.85715,415.21933 A 45.714287,74.285713 0 1 1 314.28573,415.21933 z"
           transform="translate(219.99999,-8.5714327)" />
        <path
           sodipodi:type="star"
           style="fill:none;fill-opacity:0.875;stroke:#000000;stroke-width:10;stroke-miterlimit:4;stroke-dasharray:none;stroke-opacity:0.96982757"
           id="path2389"
           sodipodi:sides="3"
           sodipodi:cx="351.42856"
           sodipodi:cy="535.21936"
           sodipodi:r1="46.070045"
           sodipodi:r2="23.035023"
           sodipodi:arg1="0.51914611"
           sodipodi:arg2="1.5663437"
           inkscape:flatsided="true"
           inkscape:rounded="0"
           inkscape:randomized="0"
           d="M 391.42856,558.0765 L 311.63369,558.43181 L 351.22342,489.14977 L 391.42856,558.0765 z"
           transform="translate(25.714286,-8.5714286)" />
        <path
           style="fill:none;fill-rule:evenodd;stroke:#000000;stroke-width:10;stroke-linecap:butt;stroke-linejoin:miter;stroke-miterlimit:4;stroke-dasharray:none;stroke-opacity:1"
           d="M 240,606.6479 L 268.05602,628.11211 L 301.86864,640.73685 L 336.64002,651.80842 L 374.30084,656.54904 L 425.76271,652.67052 L 463.35425,642.56378 L 496.63834,631.36684 L 528.57143,609.50504"
           id="path2399"
           sodipodi:nodetypes="ccccccccc" />
        <path
           sodipodi:type="arc"
           style="fill:#000000;fill-opacity:1;stroke:#000000;stroke-width:10;stroke-miterlimit:4;stroke-dasharray:none;stroke-opacity:0.96982757"
           id="path3171"
           sodipodi:cx="324.28571"
           sodipodi:cy="309.50504"
           sodipodi:rx="15.714286"
           sodipodi:ry="14.285714"
           d="M 339.99999,309.50504 A 15.714286,14.285714 0 1 1 308.57142,309.50504 A 15.714286,14.285714 0 1 1 339.99999,309.50504 z"
           transform="translate(-48.571429,100)" />
        <path
           sodipodi:type="arc"
           style="fill:#000000;fill-opacity:1;stroke:#000000;stroke-width:10;stroke-miterlimit:4;stroke-dasharray:none;stroke-opacity:0.96982757"
           id="path3173"
           sodipodi:cx="324.28571"
           sodipodi:cy="309.50504"
           sodipodi:rx="15.714286"
           sodipodi:ry="14.285714"
           d="M 339.99999,309.50504 A 15.714286,14.285714 0 1 1 308.57142,309.50504 A 15.714286,14.285714 0 1 1 339.99999,309.50504 z"
           transform="translate(161.42858,97.142861)" />
        <path
           style="fill:none;fill-rule:evenodd;stroke:#000000;stroke-width:10;stroke-linecap:butt;stroke-linejoin:miter;stroke-miterlimit:4;stroke-dasharray:none;stroke-opacity:1"
           d="M 325.71429,315.21932 L 200,409.50504"
           id="path3175" />
        <path
           style="fill:none;fill-rule:evenodd;stroke:#000000;stroke-width:10;stroke-linecap:butt;stroke-linejoin:miter;stroke-miterlimit:4;stroke-dasharray:none;stroke-opacity:1"
           d="M 442.85714,316.64789 L 568.57143,410.93361"
           id="path3177" />
      </g>
      <g
         transform="matrix(0.4486803,0,0,0.430137,341.70035,162.65301)"
         id="g2392">
        <path
           sodipodi:type="arc"
           style="fill:none;fill-opacity:0.875;stroke:#000000;stroke-width:10;stroke-miterlimit:4;stroke-dasharray:none;stroke-opacity:0.96982757"
           id="path2394"
           sodipodi:cx="381.42856"
           sodipodi:cy="470.93362"
           sodipodi:rx="255.71428"
           sodipodi:ry="255.71428"
           d="M 637.14284,470.93362 A 255.71428,255.71428 0 1 1 125.71428,470.93362 A 255.71428,255.71428 0 1 1 637.14284,470.93362 z"
           transform="matrix(0.9336148,0,0,1.000654,28.178325,-0.3079831)" />
        <path
           sodipodi:type="arc"
           style="fill:none;fill-opacity:0.875;stroke:#000000;stroke-width:10;stroke-miterlimit:4;stroke-dasharray:none;stroke-opacity:0.96982757"
           id="path2396"
           sodipodi:cx="268.57144"
           sodipodi:cy="415.21933"
           sodipodi:rx="45.714287"
           sodipodi:ry="74.285713"
           d="M 314.28573,415.21933 A 45.714287,74.285713 0 1 1 222.85715,415.21933 A 45.714287,74.285713 0 1 1 314.28573,415.21933 z"
           transform="translate(8.5714286,-8.5714286)" />
        <path
           sodipodi:type="arc"
           style="fill:none;fill-opacity:0.875;stroke:#000000;stroke-width:10;stroke-miterlimit:4;stroke-dasharray:none;stroke-opacity:0.96982757"
           id="path2398"
           sodipodi:cx="268.57144"
           sodipodi:cy="415.21933"
           sodipodi:rx="45.714287"
           sodipodi:ry="74.285713"
           d="M 314.28573,415.21933 A 45.714287,74.285713 0 1 1 222.85715,415.21933 A 45.714287,74.285713 0 1 1 314.28573,415.21933 z"
           transform="translate(219.99999,-8.5714327)" />
        <path
           sodipodi:type="star"
           style="fill:none;fill-opacity:0.875;stroke:#000000;stroke-width:10;stroke-miterlimit:4;stroke-dasharray:none;stroke-opacity:0.96982757"
           id="path2400"
           sodipodi:sides="3"
           sodipodi:cx="351.42856"
           sodipodi:cy="535.21936"
           sodipodi:r1="46.070045"
           sodipodi:r2="23.035023"
           sodipodi:arg1="0.51914611"
           sodipodi:arg2="1.5663437"
           inkscape:flatsided="true"
           inkscape:rounded="0"
           inkscape:randomized="0"
           d="M 391.42856,558.0765 L 311.63369,558.43181 L 351.22342,489.14977 L 391.42856,558.0765 z"
           transform="translate(25.714286,-8.5714286)" />
        <path
           style="fill:none;fill-rule:evenodd;stroke:#000000;stroke-width:10;stroke-linecap:butt;stroke-linejoin:miter;stroke-miterlimit:4;stroke-dasharray:none;stroke-opacity:1"
           d="M 240,606.6479 L 268.05602,628.11211 L 301.86864,640.73685 L 336.64002,651.80842 L 374.30084,656.54904 L 425.76271,652.67052 L 463.35425,642.56378 L 496.63834,631.36684 L 528.57143,609.50504"
           id="path2402"
           sodipodi:nodetypes="ccccccccc" />
        <path
           sodipodi:type="arc"
           style="fill:#000000;fill-opacity:1;stroke:#000000;stroke-width:10;stroke-miterlimit:4;stroke-dasharray:none;stroke-opacity:0.96982757"
           id="path2404"
           sodipodi:cx="324.28571"
           sodipodi:cy="309.50504"
           sodipodi:rx="15.714286"
           sodipodi:ry="14.285714"
           d="M 339.99999,309.50504 A 15.714286,14.285714 0 1 1 308.57142,309.50504 A 15.714286,14.285714 0 1 1 339.99999,309.50504 z"
           transform="translate(-48.571429,100)" />
        <path
           sodipodi:type="arc"
           style="fill:#000000;fill-opacity:1;stroke:#000000;stroke-width:10;stroke-miterlimit:4;stroke-dasharray:none;stroke-opacity:0.96982757"
           id="path2406"
           sodipodi:cx="324.28571"
           sodipodi:cy="309.50504"
           sodipodi:rx="15.714286"
           sodipodi:ry="14.285714"
           d="M 339.99999,309.50504 A 15.714286,14.285714 0 1 1 308.57142,309.50504 A 15.714286,14.285714 0 1 1 339.99999,309.50504 z"
           transform="translate(161.42858,97.142861)" />
        <path
           style="fill:none;fill-rule:evenodd;stroke:#000000;stroke-width:10;stroke-linecap:butt;stroke-linejoin:miter;stroke-miterlimit:4;stroke-dasharray:none;stroke-opacity:1"
           d="M 325.71429,315.21932 L 200,409.50504"
           id="path2408" />
        <path
           style="fill:none;fill-rule:evenodd;stroke:#000000;stroke-width:10;stroke-linecap:butt;stroke-linejoin:miter;stroke-miterlimit:4;stroke-dasharray:none;stroke-opacity:1"
           d="M 442.85714,316.64789 L 568.57143,410.93361"
           id="path2410" />
      </g>
      <g
         transform="matrix(0.4486803,0,0,0.430137,341.68,426.93906)"
         id="g2414">
        <path
           sodipodi:type="arc"
           style="fill:none;fill-opacity:0.875;stroke:#000000;stroke-width:10;stroke-miterlimit:4;stroke-dasharray:none;stroke-opacity:0.96982757"
           id="path2416"
           sodipodi:cx="381.42856"
           sodipodi:cy="470.93362"
           sodipodi:rx="255.71428"
           sodipodi:ry="255.71428"
           d="M 637.14284,470.93362 A 255.71428,255.71428 0 1 1 125.71428,470.93362 A 255.71428,255.71428 0 1 1 637.14284,470.93362 z"
           transform="matrix(0.9336148,0,0,1.000654,28.178325,-0.3079831)" />
        <path
           sodipodi:type="arc"
           style="fill:none;fill-opacity:0.875;stroke:#000000;stroke-width:10;stroke-miterlimit:4;stroke-dasharray:none;stroke-opacity:0.96982757"
           id="path2418"
           sodipodi:cx="268.57144"
           sodipodi:cy="415.21933"
           sodipodi:rx="45.714287"
           sodipodi:ry="74.285713"
           d="M 314.28573,415.21933 A 45.714287,74.285713 0 1 1 222.85715,415.21933 A 45.714287,74.285713 0 1 1 314.28573,415.21933 z"
           transform="translate(8.5714286,-8.5714286)" />
        <path
           sodipodi:type="arc"
           style="fill:none;fill-opacity:0.875;stroke:#000000;stroke-width:10;stroke-miterlimit:4;stroke-dasharray:none;stroke-opacity:0.96982757"
           id="path2420"
           sodipodi:cx="268.57144"
           sodipodi:cy="415.21933"
           sodipodi:rx="45.714287"
           sodipodi:ry="74.285713"
           d="M 314.28573,415.21933 A 45.714287,74.285713 0 1 1 222.85715,415.21933 A 45.714287,74.285713 0 1 1 314.28573,415.21933 z"
           transform="translate(219.99999,-8.5714327)" />
        <path
           sodipodi:type="star"
           style="fill:none;fill-opacity:0.875;stroke:#000000;stroke-width:10;stroke-miterlimit:4;stroke-dasharray:none;stroke-opacity:0.96982757"
           id="path2422"
           sodipodi:sides="3"
           sodipodi:cx="351.42856"
           sodipodi:cy="535.21936"
           sodipodi:r1="46.070045"
           sodipodi:r2="23.035023"
           sodipodi:arg1="0.51914611"
           sodipodi:arg2="1.5663437"
           inkscape:flatsided="true"
           inkscape:rounded="0"
           inkscape:randomized="0"
           d="M 391.42856,558.0765 L 311.63369,558.43181 L 351.22342,489.14977 L 391.42856,558.0765 z"
           transform="translate(25.714286,-8.5714286)" />
        <path
           style="fill:none;fill-rule:evenodd;stroke:#000000;stroke-width:10;stroke-linecap:butt;stroke-linejoin:miter;stroke-miterlimit:4;stroke-dasharray:none;stroke-opacity:1"
           d="M 240,606.6479 L 268.05602,628.11211 L 301.86864,640.73685 L 336.64002,651.80842 L 374.30084,656.54904 L 425.76271,652.67052 L 463.35425,642.56378 L 496.63834,631.36684 L 528.57143,609.50504"
           id="path2424"
           sodipodi:nodetypes="ccccccccc" />
        <path
           sodipodi:type="arc"
           style="fill:#000000;fill-opacity:1;stroke:#000000;stroke-width:10;stroke-miterlimit:4;stroke-dasharray:none;stroke-opacity:0.96982757"
           id="path2426"
           sodipodi:cx="324.28571"
           sodipodi:cy="309.50504"
           sodipodi:rx="15.714286"
           sodipodi:ry="14.285714"
           d="M 339.99999,309.50504 A 15.714286,14.285714 0 1 1 308.57142,309.50504 A 15.714286,14.285714 0 1 1 339.99999,309.50504 z"
           transform="translate(-48.571429,100)" />
        <path
           sodipodi:type="arc"
           style="fill:#000000;fill-opacity:1;stroke:#000000;stroke-width:10;stroke-miterlimit:4;stroke-dasharray:none;stroke-opacity:0.96982757"
           id="path2428"
           sodipodi:cx="324.28571"
           sodipodi:cy="309.50504"
           sodipodi:rx="15.714286"
           sodipodi:ry="14.285714"
           d="M 339.99999,309.50504 A 15.714286,14.285714 0 1 1 308.57142,309.50504 A 15.714286,14.285714 0 1 1 339.99999,309.50504 z"
           transform="translate(161.42858,97.142861)" />
        <path
           style="fill:none;fill-rule:evenodd;stroke:#000000;stroke-width:10;stroke-linecap:butt;stroke-linejoin:miter;stroke-miterlimit:4;stroke-dasharray:none;stroke-opacity:1"
           d="M 325.71429,315.21932 L 200,409.50504"
           id="path2430" />
        <path
           style="fill:none;fill-rule:evenodd;stroke:#000000;stroke-width:10;stroke-linecap:butt;stroke-linejoin:miter;stroke-miterlimit:4;stroke-dasharray:none;stroke-opacity:1"
           d="M 442.85714,316.64789 L 568.57143,410.93361"
           id="path2432" />
      </g>
      <g
         transform="matrix(0.4486803,0,0,0.430137,69.006999,426.93906)"
         id="g2434">
        <path
           sodipodi:type="arc"
           style="fill:none;fill-opacity:0.875;stroke:#000000;stroke-width:10;stroke-miterlimit:4;stroke-dasharray:none;stroke-opacity:0.96982757"
           id="path2436"
           sodipodi:cx="381.42856"
           sodipodi:cy="470.93362"
           sodipodi:rx="255.71428"
           sodipodi:ry="255.71428"
           d="M 637.14284,470.93362 A 255.71428,255.71428 0 1 1 125.71428,470.93362 A 255.71428,255.71428 0 1 1 637.14284,470.93362 z"
           transform="matrix(0.9336148,0,0,1.000654,28.178325,-0.3079831)" />
        <path
           sodipodi:type="arc"
           style="fill:none;fill-opacity:0.875;stroke:#000000;stroke-width:10;stroke-miterlimit:4;stroke-dasharray:none;stroke-opacity:0.96982757"
           id="path2438"
           sodipodi:cx="268.57144"
           sodipodi:cy="415.21933"
           sodipodi:rx="45.714287"
           sodipodi:ry="74.285713"
           d="M 314.28573,415.21933 A 45.714287,74.285713 0 1 1 222.85715,415.21933 A 45.714287,74.285713 0 1 1 314.28573,415.21933 z"
           transform="translate(8.5714286,-8.5714286)" />
        <path
           sodipodi:type="arc"
           style="fill:none;fill-opacity:0.875;stroke:#000000;stroke-width:10;stroke-miterlimit:4;stroke-dasharray:none;stroke-opacity:0.96982757"
           id="path2440"
           sodipodi:cx="268.57144"
           sodipodi:cy="415.21933"
           sodipodi:rx="45.714287"
           sodipodi:ry="74.285713"
           d="M 314.28573,415.21933 A 45.714287,74.285713 0 1 1 222.85715,415.21933 A 45.714287,74.285713 0 1 1 314.28573,415.21933 z"
           transform="translate(219.99999,-8.5714327)" />
        <path
           sodipodi:type="star"
           style="fill:none;fill-opacity:0.875;stroke:#000000;stroke-width:10;stroke-miterlimit:4;stroke-dasharray:none;stroke-opacity:0.96982757"
           id="path2442"
           sodipodi:sides="3"
           sodipodi:cx="351.42856"
           sodipodi:cy="535.21936"
           sodipodi:r1="46.070045"
           sodipodi:r2="23.035023"
           sodipodi:arg1="0.51914611"
           sodipodi:arg2="1.5663437"
           inkscape:flatsided="true"
           inkscape:rounded="0"
           inkscape:randomized="0"
           d="M 391.42856,558.0765 L 311.63369,558.43181 L 351.22342,489.14977 L 391.42856,558.0765 z"
           transform="translate(25.714286,-8.5714286)" />
        <path
           style="fill:none;fill-rule:evenodd;stroke:#000000;stroke-width:10;stroke-linecap:butt;stroke-linejoin:miter;stroke-miterlimit:4;stroke-dasharray:none;stroke-opacity:1"
           d="M 240,606.6479 L 268.05602,628.11211 L 301.86864,640.73685 L 336.64002,651.80842 L 374.30084,656.54904 L 425.76271,652.67052 L 463.35425,642.56378 L 496.63834,631.36684 L 528.57143,609.50504"
           id="path2444"
           sodipodi:nodetypes="ccccccccc" />
        <path
           sodipodi:type="arc"
           style="fill:#000000;fill-opacity:1;stroke:#000000;stroke-width:10;stroke-miterlimit:4;stroke-dasharray:none;stroke-opacity:0.96982757"
           id="path2446"
           sodipodi:cx="324.28571"
           sodipodi:cy="309.50504"
           sodipodi:rx="15.714286"
           sodipodi:ry="14.285714"
           d="M 339.99999,309.50504 A 15.714286,14.285714 0 1 1 308.57142,309.50504 A 15.714286,14.285714 0 1 1 339.99999,309.50504 z"
           transform="translate(-48.571429,100)" />
        <path
           sodipodi:type="arc"
           style="fill:#000000;fill-opacity:1;stroke:#000000;stroke-width:10;stroke-miterlimit:4;stroke-dasharray:none;stroke-opacity:0.96982757"
           id="path2448"
           sodipodi:cx="324.28571"
           sodipodi:cy="309.50504"
           sodipodi:rx="15.714286"
           sodipodi:ry="14.285714"
           d="M 339.99999,309.50504 A 15.714286,14.285714 0 1 1 308.57142,309.50504 A 15.714286,14.285714 0 1 1 339.99999,309.50504 z"
           transform="translate(161.42858,97.142861)" />
        <path
           style="fill:none;fill-rule:evenodd;stroke:#000000;stroke-width:10;stroke-linecap:butt;stroke-linejoin:miter;stroke-miterlimit:4;stroke-dasharray:none;stroke-opacity:1"
           d="M 325.71429,315.21932 L 200,409.50504"
           id="path2450" />
        <path
           style="fill:none;fill-rule:evenodd;stroke:#000000;stroke-width:10;stroke-linecap:butt;stroke-linejoin:miter;stroke-miterlimit:4;stroke-dasharray:none;stroke-opacity:1"
           d="M 442.85714,316.64789 L 568.57143,410.93361"
           id="path2452" />
      </g>
    </g>
    <rect
       style="fill:none;fill-opacity:1;stroke:#030000;stroke-width:10;stroke-miterlimit:4;stroke-dasharray:none;stroke-opacity:1"
       id="rect2496"
       width="537.14288"
       height="557.14288"
       x="108.57143"
       y="218.07646" />
  </g>
</svg>
