<?xml version="1.0" encoding="UTF-8" standalone="no"?>
<!-- Created with Inkscape (http://www.inkscape.org/) -->
<svg
   xmlns:dc="http://purl.org/dc/elements/1.1/"
   xmlns:cc="http://creativecommons.org/ns#"
   xmlns:rdf="http://www.w3.org/1999/02/22-rdf-syntax-ns#"
   xmlns:svg="http://www.w3.org/2000/svg"
   xmlns="http://www.w3.org/2000/svg"
   xmlns:xlink="http://www.w3.org/1999/xlink"
   xmlns:sodipodi="http://sodipodi.sourceforge.net/DTD/sodipodi-0.dtd"
   xmlns:inkscape="http://www.inkscape.org/namespaces/inkscape"
   id="svg2"
   sodipodi:version="0.32"
   inkscape:version="0.46"
   width="700"
   height="700"
   version="1.0"
   sodipodi:docbase="/home/aurium/Desktop"
   sodipodi:docname="iris.svg"
   inkscape:output_extension="org.inkscape.output.svg.inkscape"
   inkscape:export-filename="/home/irisuser/iris/iris.png"
   inkscape:export-xdpi="4.316679"
   inkscape:export-ydpi="4.316679">
  <defs
     id="defs5">
    <inkscape:perspective
       sodipodi:type="inkscape:persp3d"
       inkscape:vp_x="0 : 350 : 1"
       inkscape:vp_y="0 : 1000 : 0"
       inkscape:vp_z="700 : 350 : 1"
       inkscape:persp3d-origin="350 : 233.33333 : 1"
       id="perspective43" />
    <linearGradient
       id="linearGradient18408">
      <stop
         id="stop18410"
         offset="0"
         style="stop-color:white;stop-opacity:1;" />
      <stop
         style="stop-color:white;stop-opacity:1;"
         offset="0.69999999"
         id="stop18412" />
      <stop
         id="stop18414"
         offset="1"
         style="stop-color:white;stop-opacity:0;" />
    </linearGradient>
    <linearGradient
       id="linearGradient13424">
      <stop
         id="stop13426"
         offset="0"
         style="stop-color:aqua;stop-opacity:1;" />
      <stop
         style="stop-color:#0068e0;stop-opacity:1;"
         offset="0.69999999"
         id="stop13428" />
      <stop
         id="stop13432"
         offset="0.94"
         style="stop-color:#0068e0;stop-opacity:1;" />
      <stop
         id="stop13430"
         offset="1"
         style="stop-color:white;stop-opacity:0;" />
    </linearGradient>
    <linearGradient
       id="linearGradient12527">
      <stop
         id="stop12529"
         offset="0"
         style="stop-color:#00d4ff;stop-opacity:1;" />
      <stop
         style="stop-color:#00d4ff;stop-opacity:1;"
         offset="0.69999999"
         id="stop12535" />
      <stop
         id="stop13451"
         offset="0.95999998"
         style="stop-color:#00d4ff;stop-opacity:0;" />
      <stop
         id="stop12533"
         offset="1"
         style="stop-color:#00d4ff;stop-opacity:0;" />
    </linearGradient>
    <linearGradient
       id="linearGradient12517">
      <stop
         id="stop12519"
         offset="0"
         style="stop-color:#00c0ff;stop-opacity:1;" />
      <stop
         style="stop-color:#00c0ff;stop-opacity:1;"
         offset="0.69999999"
         id="stop12521" />
      <stop
         id="stop12523"
         offset="1"
         style="stop-color:#00c0ff;stop-opacity:0.13333334;" />
    </linearGradient>
    <linearGradient
       id="linearGradient7982">
      <stop
         style="stop-color:black;stop-opacity:1;"
         offset="0"
         id="stop7984" />
      <stop
         id="stop7990"
         offset="0.69999999"
         style="stop-color:black;stop-opacity:1;" />
      <stop
         style="stop-color:#0093ff;stop-opacity:0;"
         offset="1"
         id="stop7986" />
    </linearGradient>
    <radialGradient
       inkscape:collect="always"
       xlink:href="#linearGradient13424"
       id="radialGradient13441"
       gradientUnits="userSpaceOnUse"
       cx="348.00336"
       cy="351.99664"
       fx="348.00336"
       fy="351.99664"
       r="322.94711" />
    <radialGradient
       inkscape:collect="always"
       xlink:href="#linearGradient12527"
       id="radialGradient13443"
       gradientUnits="userSpaceOnUse"
       cx="346.35008"
       cy="353.68578"
       fx="346.35008"
       fy="353.68578"
       r="321.25089"
       gradientTransform="matrix(1.004764,0,0,0.995259,-4.69225e-6,0)" />
    <radialGradient
       inkscape:collect="always"
       xlink:href="#linearGradient12517"
       id="radialGradient13445"
       gradientUnits="userSpaceOnUse"
       gradientTransform="scale(1.01584,0.984407)"
       cx="342.57419"
       cy="357.57569"
       fx="342.57419"
       fy="357.57569"
       r="298.37482" />
    <radialGradient
       inkscape:collect="always"
       xlink:href="#linearGradient12517"
       id="radialGradient13447"
       gradientUnits="userSpaceOnUse"
       cx="353.58472"
       cy="346.4405"
       fx="353.58472"
       fy="346.4405"
       r="261.96231"
       gradientTransform="scale(0.984205,1.016048)" />
    <radialGradient
       inkscape:collect="always"
       xlink:href="#linearGradient7982"
       id="radialGradient13449"
       gradientUnits="userSpaceOnUse"
       cx="348.00336"
       cy="351.99664"
       fx="348.00336"
       fy="351.99664"
       r="322.94711" />
    <radialGradient
       inkscape:collect="always"
       xlink:href="#linearGradient18408"
       id="radialGradient18406"
       gradientUnits="userSpaceOnUse"
       cx="348.00336"
       cy="351.99664"
       fx="348.00336"
       fy="351.99664"
       r="322.94711" />
  </defs>
  <sodipodi:namedview
     inkscape:window-height="726"
     inkscape:window-width="944"
     inkscape:pageshadow="2"
     inkscape:pageopacity="0.0"
     guidetolerance="10.0"
     gridtolerance="10.0"
     objecttolerance="10.0"
     borderopacity="1.0"
     bordercolor="#666666"
     pagecolor="#ffffff"
     id="base"
     width="700px"
     height="700px"
     inkscape:zoom="0.56733496"
     inkscape:cx="349.4618"
     inkscape:cy="334.09358"
     inkscape:window-x="38"
     inkscape:window-y="55"
     inkscape:current-layer="svg2"
     showgrid="false" />
  <metadata
     id="metadata7">
    <rdf:RDF>
      <cc:Work
         rdf:about="">
        <dc:format>image/svg+xml</dc:format>
        <dc:type
           rdf:resource="http://purl.org/dc/dcmitype/StillImage" />
        <dc:title>Iris</dc:title>
        <dc:date>2006-10-31</dc:date>
        <dc:creator>
          <cc:Agent>
            <dc:title>Aur  lio A. Heckert</dc:title>
          </cc:Agent>
        </dc:creator>
        <dc:rights>
          <cc:Agent>
            <dc:title>Aur  lio A. Heckert</dc:title>
          </cc:Agent>
        </dc:rights>
        <dc:publisher>
          <cc:Agent>
            <dc:title>Aur  lio A. Heckert</dc:title>
          </cc:Agent>
        </dc:publisher>
        <dc:source>http://aurium.cjb.net</dc:source>
        <dc:subject>
          <rdf:Bag>
            <rdf:li>iris eye blue</rdf:li>
          </rdf:Bag>
        </dc:subject>
        <dc:description>light blue iris eye</dc:description>
        <cc:license
           rdf:resource="http://creativecommons.org/licenses/by-sa/2.5/" />
      </cc:Work>
      <cc:License
         rdf:about="http://creativecommons.org/licenses/by-sa/2.5/">
        <cc:permits
           rdf:resource="http://web.resource.org/cc/Reproduction" />
        <cc:permits
           rdf:resource="http://web.resource.org/cc/Distribution" />
        <cc:requires
           rdf:resource="http://web.resource.org/cc/Notice" />
        <cc:requires
           rdf:resource="http://web.resource.org/cc/Attribution" />
        <cc:permits
           rdf:resource="http://web.resource.org/cc/DerivativeWorks" />
        <cc:requires
           rdf:resource="http://web.resource.org/cc/ShareAlike" />
      </cc:License>
    </rdf:RDF>
  </metadata>
  <g
     id="g13434"
     transform="matrix(1.081283,0,0,1.081283,-26.82831,-30.36816)">
    <path
       d="M 670.95047 351.99664 A 322.94711 322.94711 0 1 1  25.056244,351.99664 A 322.94711 322.94711 0 1 1  670.95047 351.99664 z"
       sodipodi:cy="351.99664"
       sodipodi:cx="348.00336"
       style="opacity:1;color:black;fill:url(#radialGradient13441);fill-opacity:1;fill-rule:nonzero;stroke:none;stroke-width:13;stroke-linecap:round;stroke-linejoin:round;marker:none;marker-start:none;marker-mid:none;marker-end:none;stroke-miterlimit:4;stroke-dasharray:none;stroke-dashoffset:0;stroke-opacity:1;visibility:visible;display:inline;overflow:visible"
       sodipodi:type="arc"
       id="path1871"
       sodipodi:ry="322.94711"
       sodipodi:rx="322.94711" />
    <path
       id="path7092"
       d="M 314.4375,32.28125 C 314.28924,32.285257 314.15804,32.355303 314.0625,32.46875 C 313.96697,32.582196 313.91622,32.728221 313.9375,32.875 C 318.91442,80.227057 323.89458,127.58233 328.875,174.9375 C 334.06493,224.30358 339.24877,273.66867 344.4375,323.03125 C 331.63304,231.90718 318.8378,140.77939 306.03125,49.65625 C 306.01558,49.510897 305.93227,49.365088 305.8125,49.28125 C 305.69272,49.197412 305.54819,49.183724 305.40625,49.21875 C 305.15612,49.283214 304.99455,49.525563 305.03125,49.78125 C 317.85399,141.01963 330.67933,232.2607 343.5,323.5 C 327.18087,230.95597 310.84963,138.42088 294.53125,45.875 C 294.51323,45.736972 294.42456,45.613823 294.3125,45.53125 C 294.20043,45.448678 294.07467,45.413824 293.9375,45.4375 C 293.66214,45.490469 293.48087,45.755402 293.53125,46.03125 C 309.87924,138.74504 326.24502,231.47082 342.59375,324.1875 C 324.65992,239.80471 306.71651,155.40982 288.78125,71.03125 C 288.75354,70.902049 288.67422,70.789311 288.5625,70.71875 C 288.45078,70.64819 288.31607,70.625754 288.1875,70.65625 C 288.0583,70.68396 287.94556,70.763278 287.875,70.875 C 287.80444,70.986724 287.782,71.121428 287.8125,71.25 C 305.70721,155.43782 323.60165,239.62549 341.5,323.8125 C 318.18834,230.3217 294.87267,136.83589 271.5625,43.34375 C 271.53603,43.205611 271.46168,43.076655 271.34375,43 C 271.22582,42.923345 271.07449,42.905611 270.9375,42.9375 C 270.79805,42.970434 270.66484,43.063096 270.59375,43.1875 C 270.52265,43.311904 270.52008,43.456892 270.5625,43.59375 C 293.76876,136.66915 316.97969,229.73849 340.1875,322.8125 C 314.40919,232.91286 288.62292,143.02768 262.84375,53.125 C 262.81243,52.984591 262.71865,52.852625 262.59375,52.78125 C 262.46884,52.709878 262.32437,52.705702 262.1875,52.75 C 262.05283,52.788385 261.93998,52.875958 261.875,53 C 261.81002,53.124044 261.79863,53.27369 261.84375,53.40625 C 287.66749,143.46436 313.48961,233.50739 339.3125,323.5625 C 309.22144,230.95778 279.12044,138.35497 249.03125,45.75 C 248.96031,45.490098 248.70267,45.327373 248.4375,45.375 C 248.29104,45.407623 248.1656,45.493272 248.09375,45.625 C 248.0219,45.756727 248.01063,45.921699 248.0625,46.0625 C 278.22285,138.88648 308.37373,231.70752 338.53125,324.53125 C 309.2205,244.00114 279.90367,163.46576 250.59375,82.9375 C 250.52646,82.7212 250.3198,82.579119 250.09375,82.59375 C 249.93583,82.607352 249.79938,82.707292 249.71875,82.84375 C 249.63812,82.980211 249.62324,83.13636 249.6875,83.28125 C 251.01078,86.916933 252.33305,90.551881 253.65625,94.1875 C 254.13749,95.509698 254.6125,96.834057 255.09375,98.15625 C 282.61552,173.77618 310.13619,249.38136 337.65625,325 C 300.93734,234.11694 264.21836,143.22489 227.5,52.34375 C 227.1783,52.473356 226.85244,52.588139 226.53125,52.71875 C 263.32466,143.78551 300.11232,234.84206 336.90625,325.90625 C 303.82206,251.59378 270.74215,177.28089 237.65625,102.96875 C 236.8312,101.11562 236.01256,99.259364 235.1875,97.40625 C 235.09481,97.186806 234.85617,97.067488 234.625,97.125 C 234.48266,97.161163 234.37327,97.272553 234.3125,97.40625 C 234.25173,97.539951 234.24615,97.68148 234.3125,97.8125 C 252.54053,138.75334 270.77456,179.68726 289,220.625 C 304.62663,255.72826 320.24702,290.8345 335.875,325.9375 C 293.16883,238.37466 250.45678,150.81185 207.75,63.25 C 207.66432,63.052175 207.46536,62.927826 207.25,62.9375 C 207.07533,62.946813 206.93188,63.036412 206.84375,63.1875 C 206.75561,63.338588 206.73463,63.530875 206.8125,63.6875 C 249.32529,150.8516 291.8316,238.02236 334.34375,325.1875 C 290.36506,242.47818 246.38425,159.77302 202.40625,77.0625 C 202.30536,76.850916 202.07355,76.735008 201.84375,76.78125 C 201.68411,76.814043 201.53665,76.914348 201.46875,77.0625 C 201.40083,77.21065 201.42063,77.388911 201.5,77.53125 C 245.6556,160.5758 289.81248,243.63933 333.96875,326.6875 C 288.53003,247.98114 243.09619,169.26678 197.65625,90.5625 C 197.64863,90.548389 197.63377,90.544372 197.625,90.53125 C 197.60862,90.497535 197.58518,90.466009 197.5625,90.4375 C 197.52205,90.400369 197.45585,90.365796 197.40625,90.34375 C 197.31491,90.287122 197.23696,90.239483 197.125,90.25 C 196.94775,90.265476 196.79574,90.370847 196.71875,90.53125 C 196.64176,90.691652 196.65121,90.883274 196.75,91.03125 C 242.12777,169.62779 287.49851,248.21753 332.875,326.8125 C 281.02379,243.8261 229.19824,160.82932 177.34375,77.84375 C 177.04277,78.031607 176.73782,78.217431 176.4375,78.40625 C 228.25302,161.32868 280.05869,244.26428 331.875,327.1875 C 277.64376,246.78627 223.41711,166.36739 169.1875,85.96875 C 169.06204,85.769689 168.81837,85.679916 168.59375,85.75 C 168.43271,85.802104 168.29978,85.931977 168.25,86.09375 C 168.20022,86.255521 168.23986,86.428879 168.34375,86.5625 C 222.4886,166.83548 276.60831,247.10421 330.75,327.375 C 273.83331,249.04353 216.91214,170.70784 160,92.375 C 159.88309,92.2018 159.67372,92.11559 159.46875,92.15625 C 159.30233,92.200824 159.18135,92.337194 159.125,92.5 C 159.06864,92.662803 159.08425,92.830831 159.1875,92.96875 C 216.15244,171.37426 273.09782,249.80983 330.0625,328.21875 C 270.92468,252.52369 211.79464,176.81862 152.65625,101.125 C 151.64159,99.826281 150.6371,98.51953 149.625,97.21875 C 149.3439,97.437981 149.06161,97.654861 148.78125,97.875 C 208.8635,174.77693 268.95032,251.66212 329.03125,328.5625 C 266.76016,254.35162 204.49079,180.15046 142.21875,105.9375 C 142.08887,105.76358 141.86451,105.68879 141.65625,105.75 C 141.484,105.79801 141.3633,105.92231 141.3125,106.09375 C 141.2617,106.26519 141.28796,106.45966 141.40625,106.59375 C 203.7122,180.84713 266.0075,255.1189 328.3125,329.375 C 271.95814,266.78939 215.60487,204.21343 159.25,141.625 C 155.91345,137.91936 152.5866,134.20567 149.25,130.5 C 149.1155,130.33255 148.8891,130.26966 148.6875,130.34375 C 148.53044,130.40259 148.41271,130.52408 148.375,130.6875 C 148.33728,130.85093 148.38461,131.03453 148.5,131.15625 C 151.82132,134.84495 155.14749,138.52994 158.46875,142.21875 C 158.48253,142.23837 158.48317,142.26357 158.5,142.28125 C 179.83006,165.97069 201.16564,189.65683 222.5,213.34375 C 257.79875,252.55611 293.10578,291.76018 328.40625,330.96875 C 264.3236,264.60575 200.23945,198.23514 136.15625,131.875 C 136.03769,131.74511 135.86028,131.68597 135.6875,131.71875 C 135.49185,131.74317 135.34159,131.87479 135.28125,132.0625 C 135.22092,132.25021 135.26147,132.45991 135.40625,132.59375 C 199.33548,198.79445 263.25883,264.98881 327.1875,331.1875 C 259.48714,265.80898 191.79779,200.44352 124.09375,135.0625 C 123.97464,134.93347 123.79771,134.87449 123.625,134.90625 C 123.43713,134.94391 123.27139,135.09701 123.21875,135.28125 C 123.16611,135.4655 123.23538,135.65002 123.375,135.78125 C 191.11183,201.19393 258.85578,266.61625 326.59375,332.03125 C 257.80465,270.09305 189.00682,208.15575 120.21875,146.21875 C 120.09378,146.10034 119.91734,146.05329 119.75,146.09375 C 119.56542,146.13762 119.42101,146.28469 119.375,146.46875 C 119.32898,146.6528 119.38903,146.84318 119.53125,146.96875 C 188.15477,208.75758 256.78169,270.5537 325.40625,332.34375 C 252.07559,270.81281 178.73473,209.27983 105.40625,147.75 C 105.36261,147.7123 105.30281,147.67738 105.25,147.65625 C 103.82878,146.46372 102.41717,145.25982 101,144.0625 C 100.78102,144.32231 100.56192,144.58324 100.34375,144.84375 C 101.7746,146.03719 103.19777,147.2399 104.625,148.4375 C 104.65807,148.48295 104.70192,148.52896 104.75,148.5625 C 178.24804,210.23545 251.7515,271.91873 325.25,333.59375 C 257.71134,280.82388 190.16217,228.04712 122.625,175.28125 C 122.51025,175.19116 122.36137,175.1568 122.21875,175.1875 C 122.03,175.22809 121.8842,175.37371 121.84375,175.5625 C 121.8033,175.75128 121.8757,175.94813 122.03125,176.0625 C 189.63132,228.87752 257.21606,281.68612 324.8125,334.5 C 245.56379,276.92542 166.30982,219.35764 87.0625,161.78125 C 86.860062,162.05839 86.670326,162.3472 86.46875,162.625 C 165.55813,220.08699 244.6321,277.53984 323.71875,335 C 248.85061,284.50419 173.99243,233.99763 99.125,183.5 C 99.098443,183.48194 99.060227,183.48125 99.03125,183.46875 C 96.592909,181.8241 94.15708,180.17592 91.71875,178.53125 C 91.610892,178.45201 91.476209,178.41834 91.34375,178.4375 C 91.133336,178.47119 90.979292,178.63479 90.9375,178.84375 C 90.895706,179.05272 90.97498,179.26297 91.15625,179.375 C 168.87362,231.79603 246.5941,284.20665 324.3125,336.625 C 252.81105,291.94218 181.31434,247.24242 109.8125,202.5625 C 109.79302,202.5501 109.77079,202.54067 109.75,202.53125 C 108.56364,201.78992 107.37386,201.05382 106.1875,200.3125 C 106.07601,200.24203 105.94082,200.2195 105.8125,200.25 C 105.61488,200.29603 105.46522,200.45525 105.4375,200.65625 C 105.40977,200.85726 105.50972,201.05844 105.6875,201.15625 C 106.8861,201.90522 108.08265,202.65728 109.28125,203.40625 C 129.1353,215.81246 148.98908,228.21953 168.84375,240.625 C 220.41387,272.84775 271.99199,305.05727 323.5625,337.28125 C 248.49558,293.94171 173.40845,250.61985 98.34375,207.28125 C 98.29657,207.2538 98.240303,207.22931 98.1875,207.21875 C 94.517184,205.09971 90.857858,202.96283 87.1875,200.84375 C 87.088177,200.77164 86.965931,200.7383 86.84375,200.75 C 86.632877,200.78644 86.472681,200.94516 86.4375,201.15625 C 86.40232,201.36733 86.499844,201.58464 86.6875,201.6875 C 90.397939,203.82972 94.102103,205.98271 97.8125,208.125 C 97.832512,208.13804 97.852794,208.14604 97.875,208.15625 C 172.79797,251.41302 247.70487,294.67977 322.625,337.9375 C 244.65807,296.48096 166.68351,255.01712 88.71875,213.5625 C 88.633226,213.51436 88.535364,213.49261 88.4375,213.5 C 88.216166,213.51781 88.043548,213.68851 88,213.90625 C 87.956455,214.12399 88.05254,214.33594 88.25,214.4375 C 166.2272,255.89873 244.20813,297.3806 322.1875,338.84375 C 294.95741,325.56302 267.72926,312.27987 240.5,299 C 182.48986,270.70107 124.48602,242.39068 66.46875,214.09375 C 66.343442,214.02774 66.19643,214.01643 66.0625,214.0625 C 65.851186,214.12036 65.701606,214.31261 65.6875,214.53125 C 65.673393,214.74987 65.797873,214.94672 66,215.03125 C 151.09008,256.53248 236.19011,298.02897 321.28125,339.53125 C 234.98058,301.10535 148.67487,262.67314 62.375,224.25 C 62.353742,224.24054 62.333758,224.22821 62.3125,224.21875 C 62.195973,224.1612 62.061945,224.15003 61.9375,224.1875 C 61.725775,224.24491 61.576624,224.43733 61.5625,224.65625 C 61.548377,224.87515 61.672407,225.07211 61.875,225.15625 C 101.37409,242.74237 140.87773,260.31714 180.375,277.90625 C 227.20945,298.7653 274.03652,319.64372 320.875,340.5 C 233.61073,305.24123 146.3615,269.97721 59.09375,234.71875 C 59.026443,234.68177 58.951681,234.66041 58.875,234.65625 C 58.615276,234.63745 58.39174,234.80655 58.34375,235.0625 C 58.295763,235.31843 58.438609,235.57968 58.6875,235.65625 C 146.0081,270.93606 233.33429,306.21988 320.65625,341.5 C 238.1365,311.46543 155.61357,281.44099 73.09375,251.40625 C 69.926141,250.25331 66.76131,249.0904 63.59375,247.9375 C 63.5144,247.90611 63.428385,247.89536 63.34375,247.90625 C 63.083973,247.9071 62.867998,248.11636 62.84375,248.375 C 62.819502,248.63366 62.994908,248.85713 63.25,248.90625 C 149.25461,280.20935 235.27316,311.51138 321.28125,342.8125 C 235.16633,314.82987 149.05126,286.82376 62.9375,258.84375 C 62.87756,258.82149 62.81392,258.81088 62.75,258.8125 C 62.473858,258.77798 62.222018,258.97386 62.1875,259.25 C 62.152982,259.52614 62.348858,259.77798 62.625,259.8125 C 142.21586,285.6731 221.81367,311.51767 301.40625,337.375 C 307.58424,339.38278 313.75937,341.39858 319.9375,343.40625 C 227.88732,317.01081 135.82966,290.61322 43.78125,264.21875 C 43.679588,264.18644 43.570412,264.18644 43.46875,264.21875 C 43.241519,264.28369 43.086368,264.48254 43.09375,264.71875 C 43.10113,264.95495 43.269158,265.16813 43.5,265.21875 C 135.393,291.56866 227.29271,317.93036 319.1875,344.28125 C 225.12437,320.82539 131.06393,297.35898 37,273.90625 C 36.917911,273.88589 36.832089,273.88589 36.75,273.90625 C 36.488548,273.93703 36.28125,274.17424 36.28125,274.4375 C 36.281249,274.70076 36.488548,274.90672 36.75,274.9375 C 130.86763,298.40362 224.97692,321.87928 319.09375,345.34375 C 229.80772,326.36579 140.54081,307.38561 51.25,288.40625 C 51.199898,288.38763 51.147159,288.37708 51.09375,288.375 C 47.249095,287.55778 43.407079,286.72344 39.5625,285.90625 C 39.480432,285.88571 39.394568,285.88571 39.3125,285.90625 C 39.084343,285.97578 38.922621,286.19945 38.9375,286.4375 C 38.952379,286.67555 39.139961,286.86567 39.375,286.90625 C 93.103395,298.32657 146.83483,309.73258 200.5625,321.15625 C 240.07403,329.55913 279.58237,337.97504 319.09375,346.375 C 285.21965,340.40258 251.3435,334.44043 217.46875,328.46875 C 155.35248,317.51139 93.237335,306.54585 31.125,295.59375 C 31.063016,295.58239 30.999484,295.58239 30.9375,295.59375 C 30.679279,295.63509 30.492079,295.86361 30.5,296.125 C 30.50792,296.38639 30.7085,296.59937 30.96875,296.625 C 110.29514,310.6124 189.616,324.57869 268.9375,338.5625 C 285.51069,341.48676 302.08213,344.4204 318.65625,347.34375 C 223.84311,334.01599 129.0336,320.70038 34.21875,307.375 C 34.156774,307.36355 34.093226,307.36355 34.03125,307.375 C 33.753687,307.393 33.554075,307.62823 33.5625,307.90625 C 33.570924,308.18426 33.784356,308.40509 34.0625,308.40625 C 129.11885,321.76557 224.19061,335.11181 319.25,348.46875 C 314.70815,347.99151 310.16687,347.50844 305.625,347.03125 C 216.84523,337.69715 128.0579,328.36203 39.28125,319.03125 C 39.229475,319.02324 39.176775,319.02324 39.125,319.03125 C 38.840228,319.04851 38.607741,319.27773 38.625,319.5625 C 38.642259,319.84728 38.902728,320.07976 39.1875,320.0625 C 132.515,329.87159 225.8312,339.66196 319.15625,349.46875 C 229.60362,343.20551 140.05349,336.94969 50.5,330.6875 C 47.812552,330.49957 45.124945,330.31292 42.4375,330.125 C 42.385729,330.11693 42.333021,330.11693 42.28125,330.125 C 42.036251,330.18436 41.88272,330.40526 41.90625,330.65625 C 41.929781,330.90724 42.123237,331.11221 42.375,331.125 C 134.36407,337.5575 226.35429,344.00405 318.34375,350.4375 C 224.02402,347.14564 129.69129,343.85611 35.375,340.5625 C 35.343816,340.55964 35.312434,340.55964 35.28125,340.5625 C 34.996478,340.57976 34.795241,340.84022 34.8125,341.125 C 34.829759,341.40978 35.058978,341.61101 35.34375,341.59375 C 129.70165,344.88882 224.07617,348.17544 318.4375,351.46875 C 223.9779,351.46875 129.52344,351.46875 35.0625,351.46875 C 34.777728,351.46875 34.5625,351.71522 34.5625,352 C 34.5625,352.28478 34.777728,352.5 35.0625,352.5 C 129.54428,352.5 224.01956,352.5 318.5,352.5 C 220.74372,355.91503 122.97122,359.33635 25.21875,362.75 C 25.229996,363.09284 25.237684,363.43868 25.25,363.78125 C 122.90751,360.37109 220.56182,356.96953 318.21875,353.5625 C 226.45822,359.97626 134.69774,366.39599 42.9375,372.8125 C 42.239382,372.86132 41.541867,372.91993 40.84375,372.96875 C 40.642871,372.95529 40.43736,373.07175 40.34375,373.25 C 40.250137,373.42823 40.281141,373.62351 40.40625,373.78125 C 40.531358,373.939 40.742624,374.01932 40.9375,373.96875 C 41.593496,373.92288 42.250255,373.88962 42.90625,373.84375 C 42.935053,373.84691 42.970099,373.84556 43,373.84375 C 135.33261,367.38722 227.66712,360.9274 320,354.46875 C 240.24236,362.8524 160.47271,371.24253 80.71875,379.625 C 79.292152,379.77494 77.864092,379.91256 76.4375,380.0625 C 76.245976,380.04655 76.058325,380.14246 75.96875,380.3125 C 75.879174,380.48255 75.909779,380.69481 76.03125,380.84375 C 76.152723,380.99268 76.346678,381.05356 76.53125,381 C 77.957841,380.85006 79.385903,380.71244 80.8125,380.5625 C 160.49326,372.18772 240.19054,363.81346 319.875,355.4375 C 281.76126,360.79413 243.64597,366.14303 205.53125,371.5 C 156.46692,378.39242 107.40367,385.29256 58.34375,392.1875 C 58.274715,392.19829 58.212116,392.21535 58.15625,392.25 C 57.919216,392.32243 57.773128,392.56051 57.8125,392.8125 C 57.855647,393.08864 58.098858,393.2619 58.375,393.21875 C 58.417299,393.21281 58.457701,393.19344 58.5,393.1875 C 145.02483,381.0272 231.53998,368.8774 318.0625,356.71875 C 222.17553,373.62871 126.29403,390.56116 30.40625,407.46875 C 30.121478,407.52053 29.948223,407.80897 30,408.09375 C 30.051777,408.37853 30.308978,408.55178 30.59375,408.5 C 126.86601,391.52461 223.13477,374.54018 319.40625,357.5625 C 224.89568,377.64957 130.38609,397.72352 35.875,417.8125 C 35.666585,417.81192 35.487594,417.93312 35.40625,418.125 C 35.324907,418.31689 35.354667,418.53812 35.5,418.6875 C 35.645331,418.8369 35.86845,418.88854 36.0625,418.8125 C 130.55457,398.72757 225.06623,378.64553 319.5625,358.5625 C 226.12291,381.85789 132.69202,405.1398 39.25,428.4375 C 39.057779,428.46921 38.902399,428.59547 38.84375,428.78125 C 38.785101,428.96702 38.829575,429.17618 38.96875,429.3125 C 39.107923,429.44884 39.315472,429.49998 39.5,429.4375 C 132.78513,406.17892 226.06109,382.94374 319.34375,359.6875 C 231.1046,384.99056 142.86424,410.29157 54.625,435.59375 C 54.436775,435.63051 54.270076,435.78396 54.21875,435.96875 C 54.167425,436.15354 54.232699,436.34018 54.375,436.46875 C 54.517303,436.59732 54.727601,436.63225 54.90625,436.5625 C 62.886365,434.27424 70.863642,431.97583 78.84375,429.6875 C 159.28494,406.62134 239.71765,383.566 320.15625,360.5 C 232.52894,388.97622 144.91115,417.46482 57.28125,445.9375 C 57.013737,446.02379 56.851206,446.29499 56.9375,446.5625 C 57.023794,446.83002 57.326237,446.99254 57.59375,446.90625 C 145.08891,418.47734 232.56996,390.02623 320.0625,361.59375 C 228.14227,395.05215 136.23623,428.51095 44.3125,461.96875 C 44.431254,462.29631 44.505217,462.64169 44.625,462.96875 C 136.59316,429.49533 228.5623,396.03229 320.53125,362.5625 C 314.81173,364.87343 309.09444,367.18906 303.375,369.5 C 219.44956,403.4029 135.52074,437.2788 51.59375,471.1875 C 51.326237,471.29105 51.208947,471.60748 51.3125,471.875 C 51.416053,472.14252 51.701237,472.2598 51.96875,472.15625 C 55.166586,470.86424 58.364678,469.57327 61.5625,468.28125 C 147.971,433.36993 234.37512,398.47417 320.78125,363.5625 C 240.95728,399.1029 161.13714,434.64725 81.3125,470.1875 C 74.606552,473.17313 67.893691,476.13921 61.1875,479.125 C 61.000568,479.18415 60.872825,479.33735 60.84375,479.53125 C 60.814675,479.72515 60.901138,479.91987 61.0625,480.03125 C 61.223861,480.14262 61.422763,480.15845 61.59375,480.0625 C 148.4475,441.39267 235.30179,402.72962 322.15625,364.0625 C 265.91513,391.49246 209.67587,418.91584 153.4375,446.34375 C 133.9583,455.8437 114.47881,465.3433 95,474.84375 C 92.801547,475.916 90.60473,476.99023 88.40625,478.0625 C 88.155996,478.17468 88.044067,478.4685 88.15625,478.71875 C 88.268433,478.969 88.562246,479.08093 88.8125,478.96875 C 91.02318,477.89053 93.226807,476.79699 95.4375,475.71875 C 144.43602,451.82058 193.43764,427.9277 242.4375,404.03125 C 268.90494,391.12068 295.37722,378.22166 321.84375,365.3125 C 238.552,409.60269 155.26122,453.90011 71.96875,498.1875 C 71.718496,498.32557 71.611929,498.62475 71.75,498.875 C 71.888071,499.12525 72.218496,499.23182 72.46875,499.09375 C 155.81478,454.77788 239.15469,410.44366 322.5,366.125 C 249.32897,408.37129 176.17355,450.62826 103,492.875 C 98.271347,495.6051 93.541167,498.33241 88.8125,501.0625 C 88.570875,501.20057 88.486929,501.50838 88.625,501.75 C 88.763071,501.99162 89.070875,502.07557 89.3125,501.9375 C 167.2718,456.92772 245.22861,411.91618 323.1875,366.90625 C 296.62383,383.50539 270.06619,400.11747 243.5,416.71875 C 196.25033,446.24386 148.99446,475.75961 101.75,505.28125 C 101.69175,505.31793 101.63078,505.35312 101.59375,505.40625 C 99.201515,506.90109 96.798444,508.38019 94.40625,509.875 C 94.235002,509.95998 94.124129,510.12133 94.125,510.3125 C 94.125868,510.50366 94.234235,510.69784 94.40625,510.78125 C 94.578268,510.86467 94.786853,510.83645 94.9375,510.71875 C 171.17874,463.07797 247.44217,415.42552 323.6875,367.78125 C 272.28169,402.4574 220.87395,437.13295 169.46875,471.8125 C 145.25016,488.1458 121.03068,504.47712 96.8125,520.8125 C 96.80085,520.82027 96.792044,520.83522 96.78125,520.84375 C 94.249624,522.5514 91.719133,524.26114 89.1875,525.96875 C 89.007232,526.05549 88.902671,526.23748 88.90625,526.4375 C 88.909831,526.63753 89.035495,526.82602 89.21875,526.90625 C 89.402005,526.98646 89.600601,526.94554 89.75,526.8125 C 92.293621,525.09681 94.831385,523.37198 97.375,521.65625 C 173.0911,470.58508 248.81464,419.51083 324.53125,368.4375 C 257.59302,417.0717 190.65722,465.71019 123.71875,514.34375 C 123.706,514.35168 123.69932,514.36604 123.6875,514.375 C 119.72976,517.25051 115.7702,520.12456 111.8125,523 C 111.64475,523.09506 111.5468,523.27657 111.5625,523.46875 C 111.5782,523.6609 111.69404,523.83967 111.875,523.90625 C 112.05595,523.97282 112.26974,523.91743 112.40625,523.78125 C 183.26765,472.29741 254.1112,420.82508 324.96875,369.34375 C 256.435,422.89286 187.91113,476.45369 119.375,530 C 112.62648,535.27277 105.87366,540.53987 99.125,545.8125 C 98.931227,545.90259 98.828529,546.09936 98.84375,546.3125 C 98.858973,546.52568 98.982893,546.71961 99.1875,546.78125 C 99.392103,546.84288 99.619576,546.76302 99.75,546.59375 C 106.4926,541.32585 113.22629,536.04891 119.96875,530.78125 C 188.34282,477.36156 256.74822,423.95379 325.125,370.53125 C 250.19339,433.4066 175.24609,496.24867 100.3125,559.125 C 100.54005,559.39678 100.77157,559.66648 101,559.9375 C 175.91093,497.0802 250.83661,434.23116 325.75,371.375 C 255.19049,434.90457 184.62356,498.40403 114.0625,561.9375 C 113.84676,562.12735 113.81016,562.47176 114,562.6875 C 114.18985,562.90323 114.53426,562.9086 114.75,562.71875 C 185.42087,499.0864 256.08066,435.44575 326.75,371.8125 C 260.06063,436.21664 193.37827,500.62877 126.6875,565.03125 C 125.61705,566.06497 124.53919,567.09129 123.46875,568.125 C 123.31359,568.24707 123.23774,568.43243 123.28125,568.625 C 123.32475,568.81756 123.49493,568.98775 123.6875,569.03125 C 123.88007,569.07473 124.06543,568.99891 124.1875,568.84375 C 125.2527,567.81509 126.30981,566.77865 127.375,565.75 C 193.89574,501.51172 260.41819,437.29754 326.9375,373.0625 C 259.10579,443.30478 191.27005,513.53863 123.4375,583.78125 C 123.40165,583.8171 123.36719,583.86403 123.34375,583.90625 C 123.58687,584.14183 123.81864,584.39018 124.0625,584.625 C 124.10472,584.60156 124.15165,584.5671 124.1875,584.53125 C 192.20989,514.09204 260.22842,443.63103 328.25,373.1875 C 271.87407,435.79763 215.49786,498.42288 159.125,561.03125 C 159.0062,561.1594 158.97882,561.3333 159.03125,561.5 C 159.08367,561.66667 159.20423,561.80667 159.375,561.84375 C 159.54575,561.88086 159.72691,561.81744 159.84375,561.6875 C 160.32243,561.15588 160.80257,560.62537 161.28125,560.09375 C 217.27421,497.90723 273.28567,435.71943 329.28125,373.53125 C 267.92079,446.65697 206.54621,519.78178 145.1875,592.90625 C 145.04011,593.04129 144.97121,593.24683 145.03125,593.4375 C 145.09128,593.6282 145.27058,593.75503 145.46875,593.78125 C 145.66692,593.80751 145.86117,593.73099 145.96875,593.5625 C 149.08661,589.84678 152.19459,586.12201 155.3125,582.40625 C 213.39404,513.18742 271.48145,443.97 329.5625,374.75 C 270.15616,450.78176 210.74799,526.8098 151.34375,602.84375 C 151.16253,603.07675 151.2045,603.41253 151.4375,603.59375 C 151.6705,603.77497 152.00628,603.733 152.1875,603.5 C 211.70097,527.32624 271.20788,451.14501 330.71875,374.96875 C 282.80129,440.91631 234.88388,506.86296 186.96875,572.8125 C 179.08827,583.65948 171.19283,594.4974 163.3125,605.34375 C 163.14854,605.57675 163.2045,605.89854 163.4375,606.0625 C 163.6705,606.22646 163.99229,606.1705 164.15625,605.9375 C 219.73323,529.44232 275.30209,452.96246 330.875,376.46875 C 276.25083,457.45125 221.62497,538.42144 167,619.40625 C 167.29222,619.60449 167.58209,619.80269 167.875,620 C 222.68134,538.74629 277.47568,457.47484 332.28125,376.21875 C 288.78625,445.82238 245.30784,515.42417 201.8125,585.03125 C 201.6658,585.25562 201.71314,585.5408 201.9375,585.6875 C 202.16187,585.8342 202.4783,585.78687 202.625,585.5625 C 203.09835,584.80499 203.5579,584.03877 204.03125,583.28125 C 247.27723,514.07319 290.53332,444.86462 333.78125,375.65625 C 284.99845,460.14265 236.18642,544.60396 187.40625,629.09375 C 187.25955,629.344 187.3435,629.6658 187.59375,629.8125 C 187.844,629.9592 188.1658,629.87525 188.3125,629.625 C 194.22293,619.38783 200.12111,609.14358 206.03125,598.90625 C 248.51756,525.31784 291.01458,451.74337 333.5,378.15625 C 288.22118,463.31346 242.93503,548.46812 197.65625,633.625 C 197.51818,633.88388 197.61612,634.20568 197.875,634.34375 C 198.13388,634.48182 198.45568,634.38388 198.59375,634.125 C 243.92057,548.87777 289.23564,463.62256 334.5625,378.375 C 297.39916,454.56928 260.25625,530.77429 223.09375,606.96875 C 220.37542,612.54205 217.65582,618.11411 214.9375,623.6875 C 214.84443,623.85117 214.83511,624.06075 214.9375,624.21875 C 215.0399,624.37674 215.25009,624.4556 215.4375,624.4375 C 215.6249,624.41938 215.77348,624.29968 215.84375,624.125 C 255.76293,542.27853 295.67444,460.43808 335.59375,378.59375 C 295.86433,467.83046 256.13574,557.07855 216.40625,646.3125 C 216.28715,646.4857 216.29215,646.69847 216.40625,646.875 C 216.447,646.93804 216.50175,646.98871 216.5625,647.03125 C 216.62602,647.05961 216.68646,647.09668 216.75,647.125 C 216.75962,647.1271 216.77152,647.12348 216.78125,647.125 C 216.83184,647.13289 216.88579,647.13437 216.9375,647.125 C 217.14433,647.08757 217.29882,646.92409 217.34375,646.71875 C 257.12795,557.36191 296.90336,468.01117 336.6875,378.65625 C 302.57137,463.10266 268.46166,547.55528 234.34375,632 C 233.0677,635.15832 231.77604,638.31043 230.5,641.46875 C 230.3927,641.64261 230.41434,641.8637 230.53125,642.03125 C 230.64816,642.19881 230.83104,642.2907 231.03125,642.25 C 231.23146,642.20927 231.3953,642.04365 231.4375,641.84375 C 266.84407,554.20945 302.24918,466.5721 337.65625,378.9375 C 331.65983,395.41475 325.68277,411.89819 319.6875,428.375 C 296.77466,491.32337 273.85061,554.26546 250.9375,617.21875 C 250.91377,617.28347 250.90309,617.34147 250.90625,617.40625 C 250.77323,617.77173 250.63302,618.13452 250.5,618.5 C 250.41146,618.66708 250.41786,618.87993 250.53125,619.03125 C 250.64464,619.18254 250.84603,619.2568 251.03125,619.21875 C 251.21646,619.18073 251.36171,619.02752 251.40625,618.84375 C 251.56178,618.41644 251.71947,617.98981 251.875,617.5625 C 280.84327,537.97279 309.81314,458.3733 338.78125,378.78125 C 310.24091,466.61645 281.69618,554.44447 253.15625,642.28125 C 253.06996,642.54876 253.20124,642.8512 253.46875,642.9375 C 253.73627,643.02379 254.03871,642.86126 254.125,642.59375 C 282.54684,555.12042 310.98399,467.65919 339.40625,380.1875 C 313.12464,471.84488 286.81304,563.50075 260.53125,655.15625 C 260.45358,655.43239 260.59886,655.73483 260.875,655.8125 C 261.15114,655.89017 261.45358,655.71364 261.53125,655.4375 C 287.86312,563.60734 314.19956,471.76951 340.53125,379.9375 C 321.19645,457.48822 301.86645,535.04448 282.53125,612.59375 C 282.52622,612.61532 282.53328,612.63479 282.53125,612.65625 C 282.0405,614.62462 281.55327,616.59414 281.0625,618.5625 C 280.96944,618.73983 280.99172,618.94428 281.125,619.09375 C 281.25828,619.2432 281.46946,619.29096 281.65625,619.21875 C 281.84303,619.14653 281.97067,618.98151 281.96875,618.78125 C 282.46506,616.79067 282.97243,614.80307 283.46875,612.8125 C 302.83486,535.13926 322.19678,457.48187 341.5625,379.8125 C 321.22928,475.476 300.89573,571.15201 280.5625,666.8125 C 280.48224,667.00478 280.51093,667.22568 280.65625,667.375 C 280.80156,667.52432 281.02436,667.57501 281.21875,667.5 C 281.41315,667.42501 281.55515,667.23948 281.5625,667.03125 C 301.88469,571.42271 322.20907,475.79907 342.53125,380.1875 C 325.79708,475.09407 309.047,570.00035 292.3125,664.90625 C 292.23899,665.09952 292.28881,665.32505 292.4375,665.46875 C 292.58619,665.61246 292.80936,665.64257 293,665.5625 C 293.19066,665.48241 293.311,665.30052 293.3125,665.09375 C 310.0339,570.26213 326.74768,475.42605 343.46875,380.59375 C 330.59507,472.17797 317.71521,563.75847 304.84375,655.34375 C 304.80923,655.62852 304.99648,655.90298 305.28125,655.9375 C 305.56603,655.97202 305.84048,655.75352 305.875,655.46875 C 318.74213,563.91425 331.60425,472.36593 344.46875,380.8125 C 335.45749,466.57036 326.45065,552.33905 317.4375,638.09375 C 317.39141,638.28095 317.47369,638.47428 317.625,638.59375 C 317.77631,638.71323 317.95359,638.7445 318.125,638.65625 C 318.29641,638.56802 318.41559,638.38007 318.40625,638.1875 C 318.66466,635.72887 318.92906,633.27111 319.1875,630.8125 C 327.94322,547.50737 336.71076,464.20973 345.46875,380.90625 C 339.4316,467.28403 333.41537,553.64994 327.375,640.03125 C 327.32616,640.21963 327.37901,640.41003 327.53125,640.53125 C 327.68348,640.65247 327.92109,640.68354 328.09375,640.59375 C 328.26642,640.50396 328.35556,640.31925 328.34375,640.125 C 334.3915,553.63819 340.45041,467.14459 346.5,380.65625 C 346.44807,382.14581 346.39567,383.63544 346.34375,385.125 C 343.07533,478.66549 339.79769,572.21109 336.53125,665.75 C 336.52262,666.03477 336.74648,666.27262 337.03125,666.28125 C 337.31602,666.28988 337.55387,666.06602 337.5625,665.78125 C 340.87149,571.02366 344.1892,476.25903 347.5,381.5 C 347.5,469.27211 347.50001,557.03882 347.5,644.8125 C 347.5,652.6249 347.5,660.43766 347.5,668.25 C 347.5,668.53477 347.71523,668.75 348,668.75 C 348.28478,668.75 348.53125,668.53477 348.53125,668.25 C 348.53125,572.67907 348.53125,477.1032 348.53125,381.53125 C 351.63621,470.46788 354.73804,559.40813 357.84375,648.34375 C 357.85238,648.61989 358.09885,648.82113 358.375,648.8125 C 358.65114,648.80387 358.85238,648.58864 358.84375,648.3125 C 358.62986,642.18746 358.40136,636.06259 358.1875,629.9375 C 355.28698,546.87771 352.39734,463.81133 349.5,380.75 C 355.87343,471.90757 362.25058,563.06 368.625,654.21875 C 368.98399,659.35387 369.32842,664.48987 369.6875,669.625 C 369.6887,669.81653 369.79896,670.00511 369.96875,670.09375 C 370.13854,670.18237 370.34216,670.171 370.5,670.0625 C 370.65783,669.95399 370.74069,669.75277 370.71875,669.5625 C 364.00791,573.59291 357.30137,477.62554 350.59375,381.65625 C 352.06879,395.68809 353.556,409.71838 355.03125,423.75 C 363.69761,506.2394 372.36075,588.72474 381.03125,671.21875 C 381.03335,671.41423 381.1373,671.60078 381.3125,671.6875 C 381.48772,671.77419 381.71831,671.74188 381.875,671.625 C 382.03171,671.5081 382.09568,671.31765 382.0625,671.125 C 371.9116,574.546 361.77357,477.95617 351.625,381.375 C 364.41037,472.36343 377.18127,563.35627 389.96875,654.34375 C 390.0119,654.62852 390.27773,654.8244 390.5625,654.78125 C 390.84727,654.7381 391.04315,654.47227 391,654.1875 C 378.18045,562.97182 365.35359,471.77426 352.53125,380.5625 C 368.8465,473.08454 385.15427,565.6011 401.46875,658.125 C 401.48591,658.31871 401.59998,658.49207 401.78125,658.5625 C 401.96252,658.63291 402.16907,658.60006 402.3125,658.46875 C 402.45593,658.33743 402.52293,658.12426 402.46875,657.9375 C 386.13761,565.31911 369.80065,472.71029 353.46875,380.09375 C 370.66417,461.00106 387.86506,541.90496 405.0625,622.8125 C 405.07545,622.87938 405.08927,622.94679 405.125,623 C 405.82882,626.31131 406.51491,629.62618 407.21875,632.9375 C 407.27053,633.20501 407.54498,633.36428 407.8125,633.3125 C 408.08002,633.26072 408.23928,633.01751 408.1875,632.75 C 407.47006,629.37472 406.74875,626.00027 406.03125,622.625 C 388.85418,541.81329 371.68027,460.99898 354.5,380.1875 C 377.81166,473.67829 401.12733,567.16411 424.4375,660.65625 C 424.46955,660.84813 424.5957,661.00406 424.78125,661.0625 C 424.9668,661.12094 425.17628,661.07638 425.3125,660.9375 C 425.44872,660.79861 425.49952,660.59064 425.4375,660.40625 C 402.18967,567.16415 378.93685,473.92822 355.6875,380.6875 C 376.82229,454.38329 397.95703,528.08455 419.09375,601.78125 C 423.34989,616.62596 427.61863,631.46876 431.875,646.3125 C 431.87671,646.32205 431.87277,646.33439 431.875,646.34375 C 432.30842,647.85525 432.75409,649.36351 433.1875,650.875 C 433.21172,651.07611 433.33745,651.25355 433.53125,651.3125 C 433.72504,651.37142 433.96165,651.30982 434.09375,651.15625 C 434.22586,651.00268 434.24349,650.77656 434.15625,650.59375 C 433.72007,649.07259 433.27993,647.55241 432.84375,646.03125 C 407.50786,557.67439 382.1787,469.29836 356.84375,380.9375 C 386.88088,473.37615 416.93353,565.81111 446.96875,658.25 C 447.05504,658.52614 447.34886,658.68004 447.625,658.59375 C 447.90114,658.50746 448.05504,658.21364 447.96875,657.9375 C 417.82562,565.16649 387.67623,472.39577 357.53125,379.625 C 386.82284,460.10243 416.11553,540.58696 445.40625,621.0625 C 445.50117,621.32138 445.77237,621.46992 446.03125,621.375 C 446.29014,621.28008 446.43867,620.97763 446.34375,620.71875 C 416.98122,540.04593 387.61338,459.38836 358.25,378.71875 C 395.00732,469.69686 431.77444,560.68007 468.53125,651.65625 C 468.84398,651.53023 469.15651,651.40822 469.46875,651.28125 C 432.75963,560.42289 396.08011,469.57451 359.375,378.71875 C 392.36624,452.82252 425.35076,526.92782 458.34375,601.03125 C 459.1688,602.88438 459.98744,604.74064 460.8125,606.59375 C 460.92468,606.844 461.2185,606.95593 461.46875,606.84375 C 461.719,606.73157 461.83093,606.43775 461.71875,606.1875 C 427.86098,530.1417 393.98617,454.10618 360.125,378.0625 C 402.15157,464.22851 444.19377,550.39863 486.21875,636.5625 C 486.89882,637.95686 487.56993,639.35565 488.25,640.75 C 488.37944,641.00888 488.70986,641.12944 488.96875,641 C 489.22764,640.87055 489.31694,640.54013 489.1875,640.28125 C 488.536,638.94548 487.87025,637.61701 487.21875,636.28125 C 487.21594,636.23709 487.20197,636.19961 487.1875,636.15625 C 487.17729,636.13531 487.16646,636.11469 487.15625,636.09375 C 445.23985,550.15251 403.32427,464.21988 361.40625,378.28125 C 405.479,461.16752 449.55295,544.05007 493.625,626.9375 C 493.69441,627.12909 493.85911,627.2687 494.0625,627.28125 C 494.26589,627.29381 494.47006,627.1816 494.5625,627 C 494.65493,626.81841 494.62982,626.59456 494.5,626.4375 C 450.53318,543.74797 406.58759,461.06335 362.625,378.375 C 407.86085,456.73012 453.10664,535.08453 498.34375,613.4375 C 498.35086,613.44982 498.36789,613.45643 498.375,613.46875 C 498.40708,613.51233 498.42667,613.56339 498.46875,613.59375 C 498.62596,613.73673 498.86803,613.76738 499.0625,613.65625 C 499.26486,613.54062 499.33788,613.30891 499.28125,613.09375 C 499.27498,613.05099 499.26755,613.00979 499.25,612.96875 C 499.23837,612.94861 499.23038,612.92639 499.21875,612.90625 C 453.87034,534.3605 408.53467,455.82413 363.1875,377.28125 C 415.01903,460.22878 466.8567,543.17825 518.6875,626.125 C 518.982,625.94117 519.26864,625.74725 519.5625,625.5625 C 467.79159,542.71112 416.02185,459.85203 364.25,377 C 418.43924,457.33897 472.62489,537.69489 526.8125,618.03125 C 526.97646,618.27287 527.32087,618.35145 527.5625,618.1875 C 527.80412,618.02355 527.85146,617.67912 527.6875,617.4375 C 473.42924,536.9964 419.16612,456.56394 364.90625,376.125 C 421.94023,454.62456 478.96576,533.1241 536,611.625 C 536.17259,611.858 536.517,611.92258 536.75,611.75 C 536.98299,611.57741 537.01634,611.233 536.84375,611 C 479.92835,532.66268 423.00888,454.33596 366.09375,376 C 425.17645,451.62454 484.26049,527.25193 543.34375,602.875 C 544.35841,604.17372 545.3629,605.48047 546.375,606.78125 C 546.6561,606.56202 546.93839,606.34514 547.21875,606.125 C 546.19724,604.82344 545.17488,603.52252 544.15625,602.21875 C 505.08123,552.20505 466.01146,502.19492 426.9375,452.1875 C 406.96417,426.6283 387.00256,401.06018 367.03125,375.5 C 429.2887,449.68888 491.55894,523.87156 553.8125,598.0625 C 553.91466,598.24479 554.10486,598.33595 554.3125,598.3125 C 554.52012,598.28904 554.69106,598.16923 554.75,597.96875 C 554.80891,597.76828 554.75567,597.53834 554.59375,597.40625 C 492.20723,523.05685 429.8231,448.69588 367.4375,374.34375 C 427.21613,440.72995 487.0059,507.11268 546.78125,573.5 C 546.89807,573.65177 547.0937,573.72627 547.28125,573.6875 C 547.4688,573.6487 547.60918,573.49815 547.65625,573.3125 C 547.70335,573.12687 547.64643,572.93595 547.5,572.8125 C 544.16858,569.11258 540.83137,565.41864 537.5,561.71875 C 521.77146,544.25044 506.04077,526.78218 490.3125,509.3125 C 449.53258,464.02042 408.75024,418.73055 367.96875,373.4375 C 431.92881,439.66852 495.9193,505.8969 559.875,572.125 C 560.07348,572.32348 560.39527,572.32348 560.59375,572.125 C 560.79223,571.92652 560.79223,571.60473 560.59375,571.40625 C 496.52127,505.05722 432.44694,438.72207 368.375,372.375 C 436.22375,437.89681 504.05383,503.41322 571.90625,568.9375 C 572.02821,569.09308 572.2134,569.16845 572.40625,569.125 C 572.59909,569.08154 572.76905,568.91159 572.8125,568.71875 C 572.85594,568.5259 572.78058,568.34071 572.625,568.21875 C 504.94651,502.86243 437.27335,437.48365 369.59375,372.125 C 438.32243,434.0088 507.05358,495.89864 575.78125,557.78125 C 575.98836,557.9711 576.31015,557.95711 576.5,557.75 C 576.68985,557.54289 576.67586,557.2211 576.46875,557.03125 C 571.04241,552.14536 565.6139,547.26096 560.1875,542.375 C 496.99852,485.47938 433.81316,428.58321 370.625,371.6875 C 445.41437,434.44109 520.21118,497.1825 595,559.9375 C 595.22785,559.66719 595.46053,559.39607 595.6875,559.125 C 520.66688,496.17523 445.64629,433.2295 370.625,370.28125 C 434.65575,420.30625 498.68636,470.31617 562.71875,520.34375 C 566.27377,523.12118 569.82001,525.91004 573.375,528.6875 C 573.50133,528.84497 573.71354,528.9039 573.90625,528.84375 C 574.09894,528.78362 574.23567,528.60762 574.25,528.40625 C 574.26435,528.20488 574.151,528.02432 573.96875,527.9375 C 570.41346,525.1598 566.8677,522.37142 563.3125,519.59375 C 499.2045,469.5071 435.10637,419.42784 371,369.34375 C 450.30991,426.96736 529.62888,484.59748 608.9375,542.21875 C 609.13994,541.94161 609.32967,541.6528 609.53125,541.375 C 530.50078,483.95589 451.46927,426.51531 372.4375,369.09375 C 447.24915,419.55555 522.06183,470.00667 596.875,520.46875 C 599.34434,522.13435 601.81192,523.80317 604.28125,525.46875 C 604.43118,525.59421 604.63422,525.61149 604.8125,525.53125 C 604.99075,525.45103 605.1195,525.28917 605.125,525.09375 C 605.13049,524.89835 605.01722,524.71515 604.84375,524.625 C 527.27444,472.30388 449.69533,419.97947 372.125,367.65625 C 443.4857,412.24544 514.85914,456.81575 586.21875,501.40625 C 587.41735,502.15522 588.6139,502.90728 589.8125,503.65625 C 589.95672,503.78127 590.16971,503.79712 590.34375,503.71875 C 590.51779,503.64039 590.62301,503.47211 590.625,503.28125 C 590.62699,503.09039 590.51611,502.92573 590.34375,502.84375 C 589.13777,502.09017 587.92475,501.34733 586.71875,500.59375 C 515.29547,455.96347 443.86186,411.34773 372.4375,366.71875 C 451.22685,412.20692 530.02129,457.66609 608.8125,503.15625 C 609.05412,503.30295 609.38454,503.24162 609.53125,503 C 609.67795,502.75838 609.58537,502.42795 609.34375,502.28125 C 605.61783,500.13009 601.88224,497.99487 598.15625,495.84375 C 523.33766,452.64726 448.50835,409.44747 373.6875,366.25 C 451.54959,407.65348 529.41627,449.03595 607.28125,490.4375 C 607.5315,490.56694 607.83931,490.469 607.96875,490.21875 C 608.09819,489.9685 608.00025,489.66069 607.75,489.53125 C 529.90169,448.13856 452.06416,406.76455 374.21875,365.375 C 428.54097,391.867 482.86422,418.35557 537.1875,444.84375 C 566.04023,458.91969 594.89602,472.98949 623.75,487.0625 C 623.78777,487.08092 623.83723,487.07533 623.875,487.09375 C 623.89799,487.09878 623.91438,487.12321 623.9375,487.125 C 625.81339,488.03991 627.68662,488.96007 629.5625,489.875 C 629.7282,490.00081 629.94558,490.01159 630.125,489.90625 C 630.3044,489.80092 630.40411,489.61226 630.375,489.40625 C 630.34585,489.20026 630.20158,489.02024 630,488.96875 C 628.07392,488.02934 626.14484,487.09567 624.21875,486.15625 C 541.20266,445.66663 458.17584,405.14931 375.15625,364.65625 C 402.85074,376.9853 430.55357,389.29738 458.25,401.625 C 516.71145,427.64912 575.16509,453.69074 633.625,479.71875 C 633.65495,479.73208 633.6888,479.73667 633.71875,479.75 C 633.88935,479.84288 634.0906,479.82978 634.25,479.71875 C 634.40938,479.60773 634.49674,479.41098 634.46875,479.21875 C 634.44755,479.07328 634.33731,478.98583 634.21875,478.90625 C 634.18911,478.87339 634.16339,478.83736 634.125,478.8125 C 634.10374,478.80304 634.08376,478.79071 634.0625,478.78125 C 547.78428,440.36775 461.4978,401.97394 375.21875,363.5625 C 462.45461,398.80784 549.70301,434.03622 636.9375,469.28125 C 637.1112,469.38716 637.33336,469.36672 637.5,469.25 C 637.66665,469.13329 637.75893,468.94944 637.71875,468.75 C 637.67858,468.55057 637.51132,468.38685 637.3125,468.34375 C 549.80539,432.98858 462.28969,397.63673 374.78125,362.28125 C 457.49919,392.38796 540.21946,422.48688 622.9375,452.59375 C 626.09291,453.74221 629.25082,454.88277 632.40625,456.03125 C 632.58017,456.12543 632.77974,456.1193 632.9375,456 C 633.09522,455.8807 633.16825,455.66175 633.125,455.46875 C 633.08175,455.27574 632.94358,455.13432 632.75,455.09375 C 629.59457,453.94527 626.43666,452.80471 623.28125,451.65625 C 572.18826,433.05994 521.09284,414.47102 470,395.875 C 438.41529,384.38069 406.83563,372.87066 375.25,361.375 C 461.18642,389.29967 547.12727,417.23424 633.0625,445.15625 C 633.33001,445.24254 633.60121,445.08002 633.6875,444.8125 C 633.77379,444.54498 633.64251,444.27379 633.375,444.1875 C 547.55289,416.30224 461.72956,388.41424 375.90625,360.53125 C 465.88754,386.33242 555.8608,412.1353 645.84375,437.9375 C 647.97024,438.54727 650.09224,439.17148 652.21875,439.78125 C 652.49489,439.85892 652.79733,439.71364 652.875,439.4375 C 652.95267,439.16136 652.77614,438.85892 652.5,438.78125 C 650.37349,438.17148 648.25149,437.54727 646.125,436.9375 C 556.35113,411.19525 466.58469,385.45995 376.8125,359.71875 C 395.65646,364.41678 414.50001,369.11493 433.34375,373.8125 C 503.40586,391.28193 573.46781,408.74996 643.53125,426.21875 C 648.68658,427.50407 653.84465,428.77713 659,430.0625 C 659.18725,430.13427 659.38616,430.10718 659.53125,429.96875 C 659.67635,429.83034 659.75038,429.59667 659.6875,429.40625 C 659.62459,429.21584 659.449,429.08729 659.25,429.0625 C 654.09465,427.77713 648.93658,426.50407 643.78125,425.21875 C 554.67534,403.00214 465.57396,380.77945 376.46875,358.5625 C 380.91719,359.50798 385.36406,360.4608 389.8125,361.40625 C 478.68794,380.30003 567.56152,399.20258 656.4375,418.09375 C 656.72227,418.15416 657.00209,417.97227 657.0625,417.6875 C 657.12291,417.40273 656.94102,417.12291 656.65625,417.0625 C 652.76139,416.23462 648.8636,415.42158 644.96875,414.59375 C 555.72891,395.62523 466.49003,376.65462 377.25,357.6875 C 473.12225,374.59483 569.00486,391.50174 664.875,408.40625 C 665.15977,408.45803 665.44822,408.28477 665.5,408 C 665.55178,407.71522 665.34727,407.42678 665.0625,407.375 C 656.36531,405.84145 647.66612,404.31464 638.96875,402.78125 C 551.64746,387.38419 464.32224,371.98972 377,356.59375 C 471.9284,369.93769 566.85118,383.28344 661.78125,396.625 C 662.06602,396.66815 662.33185,396.47227 662.375,396.1875 C 662.41815,395.90273 662.22227,395.6369 661.9375,395.59375 C 566.9541,382.24469 471.95522,368.90918 376.96875,355.5625 C 401.66644,358.15763 426.36456,360.74965 451.0625,363.34375 C 519.61571,370.5533 588.17005,377.76401 656.71875,384.96875 C 657.00352,384.99464 657.25536,384.78477 657.28125,384.5 C 657.30714,384.21523 657.09727,383.96339 656.8125,383.9375 C 563.55712,374.13599 470.31541,364.33044 377.0625,354.53125 C 469.2289,360.97706 561.39649,367.43012 653.5625,373.875 C 653.75834,373.9193 653.97395,373.84863 654.09375,373.6875 C 654.21358,373.52639 654.22381,373.29979 654.125,373.125 C 654.0262,372.95021 653.82483,372.85543 653.625,372.875 C 650.93756,372.68708 648.24995,372.50043 645.5625,372.3125 C 556.10229,366.05682 466.64681,359.78798 377.1875,353.53125 C 471.201,356.81535 565.20186,360.09187 659.21875,363.375 C 659.68767,363.39138 660.15608,363.42113 660.625,363.4375 C 660.90977,363.44613 661.14762,363.22227 661.15625,362.9375 C 661.16488,362.65273 660.94102,362.41488 660.65625,362.40625 C 660.18733,362.38988 659.71892,362.36013 659.25,362.34375 C 628.6126,361.27387 597.97846,360.22306 567.34375,359.15625 C 504.06281,356.94124 440.78232,354.71198 377.5,352.5 C 471.98044,352.5 566.45572,352.5 660.9375,352.5 C 661.22227,352.5 661.4375,352.28477 661.4375,352 C 661.4375,351.71522 661.22227,351.46875 660.9375,351.46875 C 566.76822,351.46875 472.6054,351.46875 378.4375,351.46875 C 475.88602,348.06429 573.33216,344.65309 670.78125,341.25 C 670.76959,340.8941 670.76281,340.54311 670.75,340.1875 C 573.12369,343.59694 475.50076,347.02687 377.875,350.4375 C 469.60443,344.02592 561.33335,337.60182 653.0625,331.1875 C 653.07318,331.18685 653.08327,331.18878 653.09375,331.1875 C 653.7815,331.13941 654.4685,331.07934 655.15625,331.03125 C 655.44102,331.01399 655.6735,330.75353 655.65625,330.46875 C 655.639,330.18397 655.37852,329.98274 655.09375,330 C 562.05617,336.50582 469.00826,343.02171 375.96875,349.53125 C 457.16905,340.99751 538.35903,332.47233 619.5625,323.9375 C 619.83001,323.91161 620.02589,323.67376 620,323.40625 C 619.97411,323.13874 619.73626,322.94286 619.46875,322.96875 C 575.92374,327.54552 532.38416,332.13605 488.84375,336.71875 C 451.19852,340.67709 413.55271,344.63632 375.90625,348.59375 C 463.15415,336.32886 550.41109,324.04278 637.65625,311.78125 C 637.69711,311.77551 637.74039,311.78699 637.78125,311.78125 C 638.05739,311.74673 638.25327,311.49489 638.21875,311.21875 C 638.18423,310.94261 637.93239,310.74673 637.65625,310.78125 C 550.78373,322.99036 463.90498,335.19673 377.03125,347.40625 C 471.6691,330.72002 566.29762,314.03135 660.9375,297.34375 C 662.48913,297.07016 664.04211,296.80485 665.59375,296.53125 C 665.87852,296.47947 666.05178,296.19103 666,295.90625 C 665.94822,295.62147 665.69102,295.44822 665.40625,295.5 C 663.86472,295.77181 662.32278,296.04069 660.78125,296.3125 C 651.52103,297.94533 642.26048,299.5856 633,301.21875 C 547.77078,316.24474 462.54181,331.25507 377.3125,346.28125 C 471.5932,326.24307 565.87502,306.22763 660.15625,286.1875 C 660.44102,286.12709 660.62291,285.84727 660.5625,285.5625 C 660.50209,285.27773 660.22227,285.09584 659.9375,285.15625 C 565.40417,305.24996 470.87656,325.37224 376.34375,345.46875 C 469.82105,322.16041 563.30623,298.83718 656.78125,275.53125 C 656.97347,275.49954 657.12885,275.37328 657.1875,275.1875 C 657.24616,275.00173 657.20168,274.79257 657.0625,274.65625 C 656.9233,274.51991 656.71578,274.46877 656.53125,274.53125 C 563.0979,297.82679 469.65439,321.13954 376.21875,344.4375 C 464.61583,319.09405 553.00911,293.75371 641.40625,268.40625 C 641.68239,268.32859 641.85891,268.02615 641.78125,267.75 C 641.70358,267.47386 641.40114,267.32858 641.125,267.40625 C 552.68633,292.76562 464.2511,318.13976 375.8125,343.5 C 386.37659,340.06717 396.93607,336.62058 407.5,333.1875 C 484.58304,308.14517 561.67076,283.10708 638.75,258.0625 C 639.02614,258.01072 639.20803,257.74489 639.15625,257.46875 C 639.10447,257.19261 638.83864,257.01072 638.5625,257.0625 C 638.51967,257.06756 638.47767,257.07806 638.4375,257.09375 C 551.09836,285.47197 463.74773,313.84192 376.40625,342.21875 C 468.174,308.81754 559.95175,275.43161 651.71875,242.03125 C 651.59766,241.6972 651.46591,241.36478 651.34375,241.03125 C 559.35687,274.5118 467.36267,307.98751 375.375,341.46875 C 461.8604,306.52702 548.36086,271.59762 634.84375,236.65625 C 634.91063,236.63252 634.982,236.60757 635.03125,236.5625 C 638.16427,235.29669 641.30453,234.04705 644.4375,232.78125 C 644.71364,232.70358 644.89016,232.43239 644.8125,232.15625 C 644.73483,231.8801 644.43239,231.70358 644.15625,231.78125 C 644.11195,231.79634 644.0699,231.81737 644.03125,231.84375 C 640.85494,233.12706 637.67629,234.40418 634.5,235.6875 C 634.47848,235.69647 634.45759,235.70692 634.4375,235.71875 C 547.80837,270.7192 461.18931,305.71794 374.5625,340.71875 C 461.31974,302.0902 548.08724,263.47028 634.84375,224.84375 C 635.11126,224.74883 635.25117,224.45501 635.15625,224.1875 C 635.06133,223.91999 634.76751,223.78008 634.5,223.875 C 634.46782,223.88238 634.43642,223.89284 634.40625,223.90625 C 547.77341,262.47771 461.13357,301.05149 374.5,339.625 C 450.00001,302.80259 525.50075,265.97966 601,229.15625 C 603.20669,228.08 605.41832,227.01377 607.625,225.9375 C 607.88388,225.83395 608.0098,225.54013 607.90625,225.28125 C 607.8027,225.02237 607.50888,224.89645 607.25,225 C 607.22845,225.00892 607.20757,225.01937 607.1875,225.03125 C 605.01869,226.08905 602.85633,227.16093 600.6875,228.21875 C 600.64304,228.23346 600.60094,228.25451 600.5625,228.28125 C 524.93247,265.16888 449.2874,302.04812 373.65625,338.9375 C 451.28284,297.6606 528.90443,256.36865 606.53125,215.09375 C 612.36147,211.99385 618.20099,208.9125 624.03125,205.8125 C 624.29876,205.71758 624.43867,205.42376 624.34375,205.15625 C 624.24883,204.88874 623.95501,204.74883 623.6875,204.84375 C 623.64317,204.85878 623.60112,204.87981 623.5625,204.90625 C 540.38058,249.13486 457.18604,293.36717 374,337.59375 C 451.73288,292.71429 529.45418,247.81678 607.1875,202.9375 C 607.44638,202.83395 607.5723,202.54013 607.46875,202.28125 C 607.3652,202.02237 607.07138,201.89645 606.8125,202 C 606.76812,202.0149 606.72604,202.03593 606.6875,202.0625 C 528.58271,247.15625 450.47935,292.24983 372.375,337.34375 C 446.3322,291.13108 520.29225,244.93237 594.25,198.71875 C 594.32261,198.69455 594.35472,198.64367 594.40625,198.59375 C 596.79878,197.09874 599.20121,195.62002 601.59375,194.125 C 601.79928,194.01055 601.91135,193.75658 601.84375,193.53125 C 601.77612,193.30592 601.54709,193.16991 601.3125,193.1875 C 601.22222,193.19557 601.13582,193.22797 601.0625,193.28125 C 524.67543,241.01317 448.29248,288.73828 371.90625,336.46875 C 447.66554,285.37148 523.42874,234.28747 599.1875,183.1875 C 599.24271,183.15776 599.30468,183.10759 599.34375,183.0625 C 601.83239,181.3839 604.32385,179.70986 606.8125,178.03125 C 607.0131,177.90125 607.08229,177.66194 607,177.4375 C 606.91771,177.21307 606.70584,177.06326 606.46875,177.09375 C 606.38948,177.10738 606.31454,177.1395 606.25,177.1875 C 528.06451,229.92427 449.87236,282.63964 371.6875,335.375 C 442.51592,283.91347 513.36023,232.45903 584.1875,181 C 584.37561,180.87534 584.44857,180.65084 584.375,180.4375 C 584.30141,180.22417 584.09996,180.07597 583.875,180.09375 C 583.78139,180.11054 583.6946,180.15394 583.625,180.21875 C 566.52055,192.64586 549.41749,205.07405 532.3125,217.5 C 478.65524,256.47869 425.00112,295.45678 371.34375,334.4375 C 446.53228,275.69437 521.72077,216.92887 596.90625,158.1875 C 597.11655,158.03927 597.18071,157.75978 597.0625,157.53125 C 596.9443,157.30272 596.68001,157.19527 596.4375,157.28125 C 596.36923,157.29931 596.30541,157.33122 596.25,157.375 C 521.33295,215.90664 446.41528,274.4353 371.5,332.96875 C 446.22774,270.25971 520.95793,207.54963 595.6875,144.84375 C 595.46559,144.57877 595.22274,144.32675 595,144.0625 C 520.05546,206.94822 445.10334,269.8343 370.15625,332.71875 C 440.74905,269.1544 511.34319,205.59468 581.9375,142.03125 C 582.09956,141.89424 582.16293,141.66937 582.09375,141.46875 C 582.02455,141.26812 581.83706,141.133 581.625,141.125 C 581.48385,141.12339 581.34824,141.17989 581.25,141.28125 C 510.57916,204.91359 439.91934,268.55425 369.25,332.1875 C 435.94447,267.78068 502.65025,203.37401 569.34375,138.96875 C 569.38906,138.92995 569.44044,138.89328 569.46875,138.84375 C 570.49143,137.85616 571.50858,136.86258 572.53125,135.875 C 572.69366,135.71984 572.72545,135.48215 572.625,135.28125 C 572.52453,135.08034 572.31533,134.96317 572.09375,135 C 571.98564,135.0205 571.88702,135.07529 571.8125,135.15625 C 504.09752,200.54783 436.39886,265.92384 368.6875,331.3125 C 431.4275,266.34381 494.16624,201.37536 556.90625,136.40625 C 556.94917,136.36597 556.97428,136.33133 557,136.28125 C 562.18393,130.91311 567.37852,125.55566 572.5625,120.1875 C 572.59803,120.15269 572.63223,120.13505 572.65625,120.09375 C 572.65101,120.08867 572.66149,120.06758 572.65625,120.0625 C 572.41835,119.83201 572.1761,119.60476 571.9375,119.375 C 571.89259,119.40208 571.84764,119.42911 571.8125,119.46875 C 503.90313,189.79093 436.0023,260.11566 368.09375,330.4375 C 423.88104,268.48008 479.64761,206.52348 535.4375,144.5625 C 535.48112,144.52338 535.50512,144.4869 535.53125,144.4375 C 535.97529,143.94435 536.43096,143.4619 536.875,142.96875 C 537.02384,142.8311 537.07649,142.62524 537,142.4375 C 536.92353,142.24975 536.7339,142.11945 536.53125,142.125 C 536.38436,142.12769 536.24654,142.1966 536.15625,142.3125 C 535.6775,142.84421 535.1975,143.37455 534.71875,143.90625 C 525.78067,153.83299 516.84378,163.7604 507.90625,173.6875 C 460.81133,225.99043 413.72063,278.28967 366.625,330.59375 C 428.02281,257.42263 489.41178,184.26831 550.8125,111.09375 C 550.97432,110.92314 551.00029,110.66774 550.875,110.46875 C 550.74973,110.26976 550.50504,110.17782 550.28125,110.25 C 550.18049,110.28507 550.09313,110.35059 550.03125,110.4375 C 488.92033,183.26669 427.82665,256.08063 366.71875,328.90625 C 426.03399,252.99114 485.34314,177.07358 544.65625,101.15625 C 544.81222,100.98419 544.84248,100.72777 544.71875,100.53125 C 544.59504,100.33473 544.34757,100.24622 544.125,100.3125 C 544.01291,100.34177 543.91388,100.40779 543.84375,100.5 C 484.30687,176.70374 424.75769,252.91877 365.21875,329.125 C 413.15624,263.14263 461.09083,197.17182 509.03125,131.1875 C 516.91173,120.34052 524.80717,109.5026 532.6875,98.65625 C 532.81316,98.487657 532.82895,98.272831 532.71875,98.09375 C 532.60852,97.914666 532.39463,97.807545 532.1875,97.84375 C 532.0591,97.873824 531.9472,97.952153 531.875,98.0625 C 476.2315,174.64924 420.5818,251.22721 364.9375,327.8125 C 419.6247,246.73655 474.31202,165.67194 529,84.59375 C 529.00869,84.582946 529.02364,84.573744 529.03125,84.5625 C 528.73951,84.36455 528.44867,84.16577 528.15625,83.96875 C 528.14707,83.980866 528.13314,83.987037 528.125,84 C 473.29766,165.28482 418.48283,246.58777 363.65625,327.875 C 406.70062,258.99248 449.73888,190.10096 492.78125,121.21875 C 492.79511,121.19885 492.80198,121.17758 492.8125,121.15625 C 493.27356,120.4184 493.72644,119.67535 494.1875,118.9375 C 494.29148,118.77015 494.27336,118.56469 494.15625,118.40625 C 494.03915,118.24781 493.84674,118.16845 493.65625,118.21875 C 493.53795,118.25297 493.43728,118.33126 493.375,118.4375 C 449.81189,188.15306 406.25029,257.87641 362.6875,327.59375 C 411.32344,243.3573 459.96051,159.11032 508.59375,74.875 C 508.69406,74.706294 508.69956,74.509068 508.59375,74.34375 C 508.48796,74.17843 508.28896,74.073321 508.09375,74.09375 C 507.91952,74.112869 507.76672,74.218653 507.6875,74.375 C 459.17595,158.39954 410.6971,242.44306 362.1875,326.46875 C 407.57563,241.10596 452.95566,155.73747 498.34375,70.375 C 498.4504,70.201299 498.45836,69.981051 498.34375,69.8125 C 498.22913,69.643948 498.01324,69.558426 497.8125,69.59375 C 497.63822,69.61272 497.48535,69.718549 497.40625,69.875 C 452.11223,155.06056 406.82532,240.25161 361.53125,325.4375 C 401.3852,243.72723 441.23993,162.02494 481.09375,80.3125 C 481.19392,80.141536 481.17703,79.942944 481.0625,79.78125 C 480.94796,79.619557 480.75701,79.524729 480.5625,79.5625 C 480.39888,79.588931 480.25869,79.694073 480.1875,79.84375 C 441.64843,158.86058 403.10174,237.88598 364.5625,316.90625 C 363.04915,320.00898 361.54459,323.11602 360.03125,326.21875 C 396.13867,245.11426 432.23339,164.01135 468.34375,82.90625 C 472.08746,74.497473 475.85003,66.096032 479.59375,57.6875 C 479.68145,57.500881 479.6353,57.2806 479.5,57.125 C 479.36469,56.969399 479.16574,56.90781 478.96875,56.96875 C 478.82334,57.021338 478.70884,57.135843 478.65625,57.28125 C 438.84924,146.68931 399.05692,236.09386 359.25,325.5 C 394.66576,237.84388 430.08475,150.18707 465.5,62.53125 C 465.57604,62.362259 465.54765,62.180274 465.4375,62.03125 C 465.32735,61.882226 465.15261,61.789384 464.96875,61.8125 C 464.77979,61.842279 464.62314,61.974824 464.5625,62.15625 C 429.12624,149.86408 393.68677,237.57312 358.25,325.28125 C 387.18734,245.77885 416.12501,166.2864 445.0625,86.78125 C 445.21804,86.353896 445.37571,85.927355 445.53125,85.5 C 445.6048,85.325168 445.56475,85.1094 445.4375,84.96875 C 445.31023,84.828103 445.1188,84.788006 444.9375,84.84375 C 444.77754,84.883267 444.64829,85.00077 444.59375,85.15625 C 444.43822,85.583561 444.28053,86.010189 444.125,86.4375 C 415.2514,165.76714 386.37345,245.10547 357.5,324.4375 C 385.95087,236.86268 414.3884,149.29519 442.84375,61.71875 C 442.91285,61.547227 442.89835,61.361869 442.78125,61.21875 C 442.66415,61.075631 442.46306,60.997482 442.28125,61.03125 C 442.09559,61.07563 441.95063,61.22059 441.90625,61.40625 C 413.4345,149.03316 384.97215,236.65596 356.5,324.28125 C 382.82788,232.46724 409.14069,140.66064 435.46875,48.84375 C 435.53412,48.657008 435.48365,48.452403 435.34375,48.3125 C 435.20384,48.172597 434.99924,48.12213 434.8125,48.1875 C 434.63987,48.243236 434.50929,48.385683 434.46875,48.5625 C 408.16987,140.27762 381.8612,231.97529 355.5625,323.6875 C 374.86613,246.26178 394.16472,168.83049 413.46875,91.40625 C 413.96501,89.415873 414.4725,87.427859 414.96875,85.4375 C 415.0164,85.269822 414.96701,85.092012 414.84375,84.96875 C 414.72049,84.845486 414.54268,84.796096 414.375,84.84375 C 414.19824,84.892901 414.06487,85.038389 414.03125,85.21875 C 413.54289,87.177461 413.05087,89.135051 412.5625,91.09375 C 412.55329,91.115585 412.53719,91.132857 412.53125,91.15625 C 396.89428,153.87271 381.26129,216.59357 365.625,279.3125 C 361.86583,294.38562 358.10249,309.45766 354.34375,324.53125 C 374.70356,228.74726 395.07769,132.97305 415.4375,37.1875 C 415.48348,37.005489 415.4172,36.816968 415.28125,36.6875 C 415.1453,36.558033 414.9608,36.5077 414.78125,36.5625 C 414.60083,36.624629 414.46891,36.78054 414.4375,36.96875 C 394.13335,132.49242 373.83539,228.00918 353.53125,323.53125 C 370.24876,228.71916 386.96965,133.90518 403.6875,39.09375 C 403.72344,38.930848 403.67409,38.748995 403.5625,38.625 C 403.45089,38.501004 403.29077,38.450113 403.125,38.46875 C 402.89835,38.501561 402.72031,38.6796 402.6875,38.90625 C 385.97353,133.69569 369.27613,228.49114 352.5625,323.28125 C 365.43025,231.73933 378.29075,140.19922 391.15625,48.65625 C 391.18781,48.491092 391.15015,48.306398 391.03125,48.1875 C 390.91235,48.068602 390.72766,48.030938 390.5625,48.0625 C 390.34655,48.104835 390.1825,48.281514 390.15625,48.5 C 389.06707,56.249965 387.96434,63.999769 386.875,71.75 C 386.87045,71.770429 386.87691,71.791214 386.875,71.8125 C 384.36714,89.656763 381.85012,107.49942 379.34375,125.34375 C 370.06233,191.36534 360.77947,257.38798 351.5,323.40625 C 360.25952,240.03374 369.01882,156.65024 377.78125,73.28125 C 378.03962,70.822834 378.30411,68.364641 378.5625,65.90625 C 378.58225,65.742401 378.532,65.575635 378.40625,65.46875 C 378.28049,65.361863 378.09603,65.329113 377.9375,65.375 C 377.74351,65.43577 377.6069,65.609637 377.59375,65.8125 C 377.33642,68.260825 377.06985,70.70794 376.8125,73.15625 C 376.8112,73.165938 376.81322,73.177652 376.8125,73.1875 C 373.86616,101.22011 370.91286,129.24992 367.96875,157.28125 C 362.13801,212.70693 356.32781,268.13505 350.5,323.5625 C 356.54819,237.02241 362.57363,150.47608 368.625,63.9375 C 368.63841,63.787227 368.57843,63.634841 368.46875,63.53125 C 368.35905,63.42766 368.21176,63.384284 368.0625,63.40625 C 367.83338,63.446958 367.66398,63.642419 367.65625,63.875 C 361.6289,150.07014 355.59174,236.27206 349.5625,322.46875 C 352.86808,227.72595 356.16015,132.99616 359.46875,38.25 C 359.48124,38.082024 359.41217,37.918482 359.28125,37.8125 C 359.15034,37.70652 358.97419,37.671562 358.8125,37.71875 C 358.58884,37.78147 358.43508,37.98647 358.4375,38.21875 C 355.12962,132.94411 351.83609,227.65302 348.53125,322.375 C 348.53125,226.83431 348.53125,131.28968 348.53125,35.75 C 348.53774,35.595873 348.48997,35.446612 348.375,35.34375 C 348.26005,35.240887 348.08996,35.195232 347.9375,35.21875 C 347.67753,35.258354 347.48902,35.48726 347.5,35.75 C 347.5,131.60218 347.5,227.45934 347.5,323.3125 C 344.38487,234.09017 341.2721,144.88253 338.15625,55.65625 C 338.16159,55.498732 338.09182,55.348457 337.96875,55.25 C 337.84569,55.151541 337.68375,55.116467 337.53125,55.15625 C 337.29225,55.216494 337.13298,55.442129 337.15625,55.6875 C 337.37016,61.813189 337.59862,67.936991 337.8125,74.0625 C 340.70634,156.94179 343.57514,239.80952 346.46875,322.6875 C 339.74691,226.58337 333.03279,130.47942 326.3125,34.375 C 326.3107,34.219955 326.24608,34.065612 326.125,33.96875 C 326.00392,33.871888 325.83916,33.84272 325.6875,33.875 C 325.42778,33.930432 325.25221,34.17352 325.28125,34.4375 C 331.99574,130.45899 338.72145,226.4788 345.4375,322.5 C 335.28427,225.92445 325.11955,129.35941 314.96875,32.78125 C 314.95821,32.497341 314.72153,32.274578 314.4375,32.28125 z "
       style="opacity:1;color:black;fill:url(#radialGradient13443);fill-opacity:1;fill-rule:nonzero;stroke:none;stroke-width:13;stroke-linecap:round;stroke-linejoin:round;marker:none;marker-start:none;marker-mid:none;marker-end:none;stroke-miterlimit:4;stroke-dasharray:none;stroke-dashoffset:0;stroke-opacity:1;visibility:visible;display:inline;overflow:visible" />
    <path
       id="use10650"
       d="M 424.82574,58.277735 C 418.88766,74.551805 416.79294,91.868069 410.85025,108.14091 C 404.904,124.42346 395.08551,139.68116 389.13926,155.96371 C 383.19301,172.24628 381.11002,189.54432 375.16377,205.82689 C 369.21752,222.10945 359.39904,237.36714 353.45278,253.64969 C 353.4536,253.6521 353.48146,253.65616 353.48297,253.65778 C 356.72986,254.52778 359.95571,255.39214 363.2026,256.26215 C 366.44948,257.13215 369.70551,258.0046 372.95241,258.8746 C 376.1993,259.7446 379.45535,260.61706 382.70222,261.48706 C 385.94912,262.35706 389.20516,263.22951 392.45204,264.09951 C 395.14963,246.9485 401.71561,230.81525 404.41321,213.66425 C 407.11081,196.51323 405.94128,178.33964 408.63889,161.18862 C 411.33649,144.03761 417.90246,127.90437 420.60006,110.75336 C 423.29766,93.602345 422.12813,75.42875 424.82574,58.277735 z M 582.78675,159.51694 C 568.4144,169.1931 556.55919,181.96061 542.18452,191.63392 C 527.80327,201.31167 510.89017,207.89323 496.50891,217.57099 C 482.12764,227.24874 470.27987,240.04041 455.8986,249.71816 C 441.51733,259.39591 424.61233,265.94729 410.23107,275.62504 C 410.22854,275.62708 410.22468,275.65286 410.22298,275.65522 C 412.33839,278.26754 414.44916,280.88909 416.56458,283.5014 C 418.67999,286.11371 420.79076,288.73525 422.90617,291.34758 C 425.02159,293.95989 427.14043,296.55126 429.25585,299.16357 C 431.37126,301.77589 433.48204,304.39744 435.59745,307.00974 C 435.59954,307.01045 435.62511,307.01807 435.62763,307.01783 C 447.89114,294.72799 462.66796,285.51634 474.93147,273.2265 C 487.19499,260.93665 496.95877,245.56128 509.22228,233.27143 C 521.48579,220.98157 536.25453,211.80014 548.51803,199.51029 C 560.78155,187.22043 570.52325,171.8068 582.78675,159.51694 z M 237.51389,69.233674 C 242.27613,85.885614 250.74816,101.10798 255.50428,117.76225 C 260.2643,134.43023 261.28711,152.54485 266.04713,169.21283 C 270.80716,185.88081 279.29959,201.11169 284.05961,217.77968 C 288.81964,234.44767 289.84243,252.56225 294.60246,269.23025 C 294.60421,269.23258 294.63057,269.23687 294.63265,269.23834 C 297.77082,268.03371 300.90956,266.81878 304.04772,265.61415 C 307.18588,264.40952 310.31654,263.22476 313.4547,262.02014 C 316.59286,260.81551 319.73162,259.60056 322.86977,258.39595 C 326.00794,257.19132 329.14669,255.97638 332.28484,254.77176 C 332.28456,254.76886 332.29409,254.7446 332.29293,254.74157 C 324.39422,239.28052 320.22563,222.40643 312.32692,206.94537 C 304.42822,191.4843 292.80616,177.4336 284.90745,161.97253 C 277.00875,146.51146 272.84015,129.63741 264.94144,114.17633 C 257.04273,98.715262 245.41259,84.694742 237.51389,69.233674 z M 651.10178,334.27801 C 633.77864,333.65438 616.67646,337.01777 599.3533,336.39413 C 582.03017,335.77049 564.47857,331.15184 547.15542,330.52819 C 529.83228,329.90457 512.73008,333.26793 495.40694,332.64431 C 478.0838,332.02067 460.56238,327.4101 443.23924,326.78646 C 443.236,326.78664 443.21185,326.77745 443.20906,326.77837 C 443.20631,326.77931 443.203,326.80704 443.20097,326.80856 C 443.37689,330.16538 443.56053,333.5274 443.73644,336.88422 C 443.91237,340.24104 444.09601,343.60307 444.27192,346.95988 C 444.44784,350.3167 444.60127,353.67064 444.7772,357.02745 C 444.95313,360.38429 445.13675,363.7463 445.31268,367.10311 C 445.31486,367.10441 445.34003,367.11054 445.34286,367.1112 C 462.48805,364.37682 479.82989,365.62778 496.97509,362.89339 C 514.12029,360.15901 531.07307,353.44409 548.21828,350.7097 C 565.36348,347.97531 582.70534,349.22626 599.8505,346.49189 C 616.9957,343.7575 633.94848,337.04259 651.09369,334.3082 C 651.09693,334.30803 651.09902,334.27894 651.10178,334.27801 z M 92.412023,188.16866 C 106.05502,198.84582 121.87549,206.18423 135.51607,216.86512 C 149.16421,227.55192 160.61384,241.60097 174.26199,252.2878 C 187.91015,262.97461 203.74806,270.30551 217.39622,280.99234 C 231.04438,291.67915 242.49398,305.72821 256.14214,316.41502 C 256.14487,316.41679 256.16955,316.42224 256.17233,316.42311 C 258.00309,313.60398 259.84312,310.78419 261.67389,307.96507 C 263.50465,305.14595 265.34468,302.32616 267.17545,299.50703 C 269.00622,296.68789 270.81607,293.86002 272.64683,291.0409 C 274.4776,288.22176 276.31763,285.40199 278.14839,282.58286 C 278.14739,282.58051 278.15841,282.55486 278.15648,282.55267 C 262.6785,274.68715 249.3487,263.47563 233.87073,255.61013 C 218.39273,247.74461 200.74311,243.23722 185.26512,235.37171 C 169.78713,227.50618 156.49562,216.27259 141.01763,208.40707 C 125.53964,200.54155 107.89001,196.03419 92.412023,188.16866 z M 250.65841,336.88057 C 233.51322,339.61495 216.17138,338.364 199.02619,341.09839 C 181.88099,343.83277 164.95836,350.55579 147.81318,353.29016 C 130.66798,356.02455 113.29596,354.7655 96.150771,357.49989 C 79.005572,360.23428 62.082966,366.95728 44.937767,369.69166 C 44.934532,369.69183 44.91035,369.68264 44.907581,369.68358 C 44.904825,369.68451 44.901533,369.71226 44.899493,369.71376 C 62.22263,370.3374 79.324832,366.97402 96.64797,367.59765 C 113.9711,368.22128 131.52272,372.83993 148.84585,373.46358 C 166.16899,374.08721 183.27928,370.69367 200.60242,371.31728 C 217.92556,371.94092 235.4691,376.58976 252.79222,377.2134 C 252.79546,377.21323 252.79753,377.18413 252.8003,377.18322 C 252.62438,373.82639 252.44076,370.46439 252.26483,367.10756 C 252.08891,363.75073 251.93547,360.39682 251.75954,357.03998 C 251.58362,353.68316 251.4,350.32113 251.22407,346.96432 C 251.04815,343.60749 250.86453,340.2455 250.6886,336.88866 C 250.68575,336.88803 250.66166,336.88039 250.65841,336.88057 z M 439.82895,387.56867 C 437.99818,390.3878 436.15814,393.20756 434.32739,396.02671 C 432.49662,398.84583 430.68679,401.67369 428.85601,404.49284 C 427.02524,407.31197 425.18521,410.13177 423.35444,412.95088 C 421.52368,415.77001 419.68365,418.58978 417.85288,421.40892 C 417.85481,421.4111 417.87224,421.44543 417.87498,421.44719 C 433.35296,429.31271 446.65257,440.51612 462.13055,448.38165 C 477.60854,456.24717 495.25815,460.75453 510.73616,468.62006 C 526.21415,476.48559 539.50566,487.71919 554.98364,495.5847 C 570.46164,503.45022 588.11127,507.95761 603.58925,515.82312 C 603.59196,515.82489 603.61664,515.83032 603.61944,515.8312 C 603.62145,515.83026 603.62632,515.80283 603.62752,515.80102 C 589.97937,505.11421 574.17162,497.79139 560.52348,487.10456 C 546.87534,476.41776 535.38744,462.39079 521.73929,451.70398 C 508.09113,441.01716 492.25321,433.68624 478.60505,422.99944 C 464.95689,412.31263 453.50729,398.26357 439.85913,387.57675 C 439.85636,387.57589 439.8315,387.56865 439.82895,387.56867 z M 260.37364,396.97394 C 248.11014,409.26379 233.3414,418.44524 221.0779,430.73509 C 208.81438,443.02494 199.07268,458.43859 186.80918,470.72843 C 174.54567,483.01829 159.74677,492.19162 147.48325,504.48149 C 135.21973,516.77134 125.47804,532.18501 113.21453,544.47483 C 127.59579,534.79709 139.44357,522.00543 153.82484,512.32767 C 168.20609,502.64992 185.11111,496.09854 199.49237,486.42079 C 213.87363,476.74304 225.7516,463.95946 240.13286,454.28171 C 254.51413,444.60395 271.39702,438.0143 285.77829,428.33656 C 283.66288,425.72423 281.55212,423.1027 279.4367,420.49038 C 277.32128,417.87807 275.2105,415.25653 273.0951,412.6442 C 270.97968,410.03189 268.86082,407.44051 266.74542,404.82821 C 264.63001,402.21589 262.51925,399.59435 260.40383,396.98203 C 260.40129,396.98227 260.37632,396.9728 260.37364,396.97394 z M 401.36863,434.75344 C 398.23046,435.95806 395.09172,437.17302 391.95356,438.37763 C 388.8154,439.58226 385.68476,440.76701 382.54657,441.97163 C 379.40841,443.17626 376.26967,444.39119 373.1315,445.59583 C 369.99333,446.80045 366.85461,448.01538 363.71643,449.22002 C 371.61514,464.68108 375.77564,481.58534 383.67435,497.0464 C 391.57305,512.50748 403.2032,526.52801 411.10191,541.98906 C 419.00061,557.45013 423.16114,574.35437 431.05983,589.81544 C 438.95854,605.27651 450.58868,619.29706 458.48739,634.7581 C 453.72514,618.10621 445.26119,602.8536 440.50509,586.19934 C 435.74506,569.53136 434.71418,551.44693 429.95415,534.77895 C 425.19412,518.11096 416.70168,502.88007 411.94166,486.2121 C 407.18163,469.54411 406.15884,451.42951 401.39881,434.76152 C 401.39674,434.76005 401.3708,434.75386 401.36863,434.75344 z M 303.58751,439.87017 C 303.5854,439.87082 303.55113,439.89059 303.54924,439.89227 C 300.85164,457.04327 294.29375,473.14633 291.59615,490.29734 C 288.89855,507.44836 290.05998,525.65216 287.36238,542.80315 C 284.66479,559.95417 278.10689,576.05723 275.4093,593.20823 C 272.7117,610.35925 273.87314,628.563 271.17553,645.71404 C 271.17635,645.71644 271.20422,645.72054 271.20572,645.72213 C 277.15197,629.43957 279.23495,612.14154 285.18121,595.85896 C 291.12746,579.5764 300.91575,564.31063 306.86201,548.02806 C 312.80826,531.7455 314.89123,514.44745 320.8375,498.16489 C 326.78376,481.88233 336.60225,466.62464 342.54849,450.34208 C 342.54768,450.33967 342.55808,450.31353 342.55658,450.3119 C 339.30969,449.4419 336.05367,448.56945 332.80677,447.69944 C 329.55988,446.82944 326.30383,445.95699 323.05695,445.08699 C 319.81006,444.21699 316.55402,443.34453 313.30714,442.47453 C 310.06025,441.60453 306.8344,440.74017 303.58751,439.87017 z "
       style="opacity:0.2;color:black;fill:url(#radialGradient13445);fill-opacity:1;fill-rule:nonzero;stroke:none;stroke-width:13;stroke-linecap:round;stroke-linejoin:round;marker:none;marker-start:none;marker-mid:none;marker-end:none;stroke-miterlimit:4;stroke-dashoffset:0;stroke-opacity:1;visibility:visible;display:inline;overflow:visible" />
    <path
       id="use10702"
       d="M 332.79738,85.833899 C 331.99714,100.23235 335.17205,114.4419 334.36607,128.84065 C 333.55949,143.24975 328.75299,157.87136 327.94642,172.28048 C 327.13985,186.68961 330.32168,200.87809 329.5151,215.28723 C 328.70853,229.69635 323.90204,244.31795 323.09546,258.72707 C 323.09695,258.72877 323.12474,258.72464 323.12667,258.7255 C 326.48385,258.55664 329.81928,258.38888 333.17646,258.22001 C 336.53364,258.05115 339.90027,257.88182 343.25747,257.71295 C 346.61465,257.54408 349.98131,257.37476 353.33847,257.20588 C 356.69566,257.03702 360.0623,256.86769 363.41948,256.69882 C 360.86765,242.46025 362.30994,228.00462 359.75812,213.76605 C 357.20629,199.52748 350.66025,185.50494 348.10843,171.26636 C 345.5566,157.02779 346.99889,142.57214 344.44707,128.33358 C 341.89524,114.09502 335.3492,100.07247 332.79738,85.833899 z M 492.13271,127.69501 C 492.12767,127.70118 492.13932,127.72005 492.13428,127.72622 C 492.13575,127.72396 492.16487,127.72704 492.16549,127.72465 C 492.16528,127.72241 492.16495,127.69528 492.16392,127.69344 C 492.16289,127.69159 492.13452,127.69619 492.13271,127.69501 z M 492.13428,127.72622 C 483.02102,138.90559 477.23409,152.2696 468.11712,163.44658 C 458.99513,174.62969 446.52591,183.62719 437.40391,194.81031 C 428.28191,205.99345 422.50878,219.34752 413.38676,230.53067 C 404.26476,241.71379 391.79554,250.71127 382.67354,261.8944 C 382.67293,261.89679 382.6749,261.92337 382.67511,261.92561 C 385.49038,263.76231 388.30406,265.60919 391.11933,267.44588 C 393.9346,269.28257 396.74671,271.09824 399.56199,272.93495 C 402.37727,274.77164 405.22215,276.61698 408.03742,278.45365 C 410.85269,280.29034 413.66637,282.13723 416.48165,283.97392 C 416.48357,283.9724 416.47861,283.94497 416.48008,283.94271 C 422.78482,270.92353 432.44589,260.10909 438.75064,247.08992 C 445.05539,234.07074 448.01883,218.86845 454.32357,205.84929 C 460.62832,192.83011 470.28783,181.98445 476.59256,168.96528 C 482.8973,155.94611 485.82953,140.7454 492.13428,127.72622 z M 179.23048,145.59256 C 187.04742,157.72388 197.96236,167.35784 205.7793,179.48917 C 213.59622,191.62047 218.31729,206.25945 226.13423,218.39076 C 233.95117,230.52208 244.86454,240.12484 252.68149,252.25616 C 260.49841,264.38747 265.21948,279.02643 273.03641,291.15774 C 273.03811,291.15985 273.03591,291.18763 273.03798,291.18895 C 273.04006,291.18855 273.06751,291.18874 273.06919,291.18738 C 275.68597,289.07747 278.30012,286.95756 280.91688,284.84765 C 283.53364,282.73774 286.14779,280.61783 288.76456,278.50791 C 291.38132,276.398 293.99706,274.30932 296.61381,272.19939 C 299.23058,270.08948 301.84473,267.96956 304.46149,265.85966 C 304.46147,265.8574 304.46075,265.83077 304.45992,265.82845 C 294.02623,255.80912 286.69099,243.28592 276.25731,233.2666 C 265.82362,223.24728 252.29449,215.72903 241.8608,205.70972 C 231.42711,195.6904 224.09189,183.16718 213.6582,173.14787 C 203.22451,163.12856 189.69539,155.61029 179.26169,145.59099 C 179.25961,145.58968 179.23268,145.59305 179.23048,145.59256 z M 596.45452,255.27171 C 582.50137,258.95728 569.97509,266.38596 556.02194,270.07154 C 542.06883,273.7571 526.69383,273.69442 512.74068,277.38001 C 498.78755,281.06557 486.26125,288.49427 472.30811,292.17983 C 458.35496,295.86539 442.98001,295.80273 429.02685,299.4883 C 429.02433,299.48927 428.99754,299.48831 428.99564,299.48987 C 428.9945,299.49181 428.99745,299.51898 428.99721,299.52108 C 430.19524,302.66177 431.40218,305.80504 432.60021,308.94573 C 433.79823,312.08641 435.00518,315.22968 436.20321,318.37038 C 437.40123,321.51108 438.57541,324.62471 439.77343,327.7654 C 440.97145,330.90609 442.17841,334.04935 443.37642,337.19005 C 443.3772,337.19208 443.37639,337.21985 443.37799,337.22126 C 443.38014,337.22195 443.40676,337.21977 443.40921,337.21969 C 456.16235,330.39279 470.33275,327.28224 483.08589,320.45536 C 495.83902,313.62846 507.16393,303.08897 519.91704,296.26209 C 532.67017,289.43519 546.84062,286.32463 559.59373,279.49776 C 572.34686,272.67086 583.70138,262.0986 596.45452,255.27171 z M 90.175267,284.21003 C 103.62233,289.42116 118.09394,290.80573 131.53962,296.022 C 144.99425,301.24176 157.42758,310.31925 170.88223,315.53901 C 184.33688,320.75877 198.82313,322.12963 212.2778,327.34941 C 225.73245,332.56916 238.13454,341.64822 251.5892,346.86799 C 251.5918,346.86869 251.61795,346.86655 251.62041,346.86642 C 251.62185,346.86487 251.61828,346.83731 251.61884,346.8352 C 252.49567,343.59015 253.38112,340.34165 254.25795,337.09658 C 255.13477,333.85154 256.02179,330.63424 256.89863,327.38917 C 257.77546,324.14412 258.6297,320.89718 259.50653,317.65212 C 260.38335,314.40706 261.26881,311.15856 262.14564,307.9135 C 262.1452,307.91145 262.14541,307.88411 262.14407,307.88229 C 247.81381,305.90926 234.52382,300.07537 220.19356,298.10233 C 205.86331,296.12931 190.48913,298.00358 176.15888,296.03056 C 161.82864,294.05753 148.53861,288.22361 134.20837,286.2506 C 119.87812,284.27757 104.50552,286.18306 90.175267,284.21003 z M 252.59076,366.78031 C 239.83762,373.60721 225.66564,376.68653 212.91251,383.51343 C 200.15938,390.34033 188.83606,400.91101 176.08293,407.73791 C 163.3298,414.56481 149.15937,417.67536 136.40624,424.50224 C 123.65311,431.32914 112.32823,441.86861 99.575095,448.69551 C 99.572575,448.69648 99.545792,448.69552 99.543884,448.69708 C 99.541995,448.69865 99.546592,448.72635 99.545454,448.72829 C 113.4986,445.04272 126.02489,437.61403 139.97803,433.92847 C 153.93114,430.2429 169.30613,430.30557 183.25929,426.62 C 197.21242,422.93443 209.73872,415.50575 223.69186,411.82017 C 237.64501,408.13461 253.05119,408.19569 267.00433,404.51013 C 267.00622,404.50856 267.0016,404.48087 267.00276,404.47892 C 265.80473,401.33823 264.59778,398.19497 263.39976,395.05427 C 262.20174,391.91359 261.02599,388.76873 259.82797,385.62805 C 258.62995,382.48735 257.42299,379.34407 256.22497,376.20339 C 255.02695,373.0627 253.82,369.91942 252.62197,366.77874 C 252.61952,366.77885 252.5933,366.77933 252.59076,366.78031 z M 444.37956,357.13359 C 443.50273,360.37864 442.61728,363.62714 441.74045,366.87221 C 440.86363,370.11725 440.00938,373.36419 439.13255,376.60926 C 438.25572,379.85431 437.37026,383.10283 436.49344,386.34788 C 435.61662,389.59294 434.73115,392.84145 433.85433,396.0865 C 433.85566,396.08832 433.85385,396.11636 433.8559,396.11771 C 433.85795,396.11907 433.88451,396.11544 433.88711,396.11614 C 448.21737,398.08917 461.50736,403.92307 475.83762,405.8961 C 490.16787,407.86912 505.5405,405.96365 519.87073,407.93667 C 534.20097,409.90969 547.45979,415.74516 561.79003,417.71819 C 576.12028,419.69122 591.49448,417.81695 605.8247,419.78997 C 592.37764,414.57884 577.90602,413.19427 564.46035,407.978 C 551.00572,402.75824 538.60359,393.67918 525.14895,388.45942 C 511.6943,383.23966 497.17684,381.87035 483.72217,376.65059 C 470.26752,371.43084 457.86543,362.35178 444.41077,357.13202 C 444.40831,357.13217 444.38162,357.13267 444.37956,357.13359 z M 279.51832,420.02608 C 273.21357,433.04526 263.55408,443.89093 257.24933,456.91008 C 250.94458,469.92926 247.98114,485.13154 241.6764,498.15071 C 235.37165,511.16989 225.71216,522.01556 219.40741,535.03472 C 213.10267,548.05389 210.17044,563.25463 203.86569,576.27378 C 212.9791,565.09434 218.7658,551.7305 227.88284,540.55342 C 237.00484,529.37031 249.47406,520.37282 258.59606,509.18969 C 267.71806,498.00655 273.49121,484.65249 282.61321,473.46933 C 291.7352,462.28621 304.20442,453.28874 313.32643,442.1056 C 313.32791,442.10333 313.32423,442.07677 313.32486,442.07439 C 310.50959,440.2377 307.6959,438.39082 304.88064,436.55412 C 302.06536,434.71743 299.25167,432.87053 296.43641,431.03384 C 293.62113,429.19715 290.80902,427.38147 287.99376,425.54478 C 285.17849,423.70809 282.36482,421.86121 279.54953,420.02451 C 279.54771,420.02332 279.52045,420.02627 279.51832,420.02608 z M 422.96199,412.81105 C 420.34521,414.92096 417.73108,417.04086 415.1143,419.15078 C 412.49754,421.26069 409.85063,423.35097 407.23384,425.46088 C 404.61708,427.57079 402.00293,429.69069 399.38616,431.80061 C 396.76939,433.91052 394.15525,436.03042 391.53848,438.14034 C 391.53934,438.14265 391.53836,438.16946 391.54005,438.17156 C 401.97374,448.19088 409.30896,460.71408 419.74266,470.7334 C 430.17635,480.75272 443.70549,488.27096 454.13917,498.29028 C 464.57286,508.3096 471.9081,520.83283 482.34177,530.85213 C 492.77546,540.87144 506.30303,548.35851 516.73671,558.3778 C 508.92135,546.26334 498.02991,536.63024 490.22067,524.51083 C 482.40375,512.37953 477.68266,497.74056 469.86574,485.60924 C 462.0488,473.47792 451.13387,463.84394 443.31691,451.71263 C 435.49999,439.58132 430.77891,424.94238 422.96199,412.81105 z M 332.57892,447.26997 C 332.5776,447.2718 332.58116,447.29882 332.58049,447.30118 C 335.13232,461.53975 333.68845,475.96418 336.24028,490.20274 C 338.79211,504.44131 345.33971,518.49508 347.89154,532.73364 C 350.44337,546.97222 348.9995,561.39663 351.55133,575.63521 C 354.10316,589.87377 360.65076,603.92755 363.20259,618.1661 C 363.20408,618.16779 363.23189,618.16368 363.2338,618.16453 C 364.04037,603.75541 360.85854,589.56692 361.66511,575.15779 C 362.47169,560.74868 367.24696,546.12862 368.05355,531.71952 C 368.86012,517.3104 365.67827,503.12189 366.48487,488.71277 C 367.29144,474.30365 372.09795,459.68206 372.90451,445.27293 C 372.90361,445.27064 372.90444,445.24342 372.90294,445.24172 C 369.54576,445.41058 366.17913,445.57992 362.82194,445.74878 C 359.46476,445.91764 356.09811,446.08698 352.74093,446.25584 C 349.38375,446.42471 346.0171,446.59404 342.65993,446.76291 C 339.30274,446.93177 335.96732,447.09954 332.61013,447.2684 C 332.60831,447.26946 332.58023,447.26814 332.57892,447.26997 z "
       style="opacity:0.3;color:black;fill:url(#radialGradient13447);fill-opacity:1;fill-rule:nonzero;stroke:none;stroke-width:13;stroke-linecap:round;stroke-linejoin:round;marker:none;marker-start:none;marker-mid:none;marker-end:none;stroke-miterlimit:4;stroke-dashoffset:0;stroke-opacity:1;visibility:visible;display:inline;overflow:visible" />
    <path
       d="M 670.95047 351.99664 A 322.94711 322.94711 0 1 1  25.056244,351.99664 A 322.94711 322.94711 0 1 1  670.95047 351.99664 z"
       sodipodi:cy="351.99664"
       sodipodi:cx="348.00336"
       style="opacity:1;color:black;fill:url(#radialGradient13449);fill-opacity:1;fill-rule:nonzero;stroke:none;stroke-width:13;stroke-linecap:round;stroke-linejoin:round;marker:none;marker-start:none;marker-mid:none;marker-end:none;stroke-miterlimit:4;stroke-dasharray:none;stroke-dashoffset:0;stroke-opacity:1;visibility:visible;display:inline;overflow:visible"
       transform="matrix(0.45,0,0,0.45,191.4019,193.5982)"
       sodipodi:type="arc"
       id="path7095"
       sodipodi:ry="322.94711"
       sodipodi:rx="322.94711" />
    <path
       sodipodi:rx="322.94711"
       sodipodi:ry="322.94711"
       id="path18404"
       sodipodi:type="arc"
       transform="matrix(0.208333,0,0,0.208333,178.6186,184.4712)"
       style="opacity:1;color:black;fill:url(#radialGradient18406);fill-opacity:1;fill-rule:nonzero;stroke:none;stroke-width:13;stroke-linecap:round;stroke-linejoin:round;marker:none;marker-start:none;marker-mid:none;marker-end:none;stroke-miterlimit:4;stroke-dasharray:none;stroke-dashoffset:0;stroke-opacity:1;visibility:visible;display:inline;overflow:visible"
       sodipodi:cx="348.00336"
       sodipodi:cy="351.99664"
       d="M 670.95047 351.99664 A 322.94711 322.94711 0 1 1  25.056244,351.99664 A 322.94711 322.94711 0 1 1  670.95047 351.99664 z" />
  </g>
  <text
     xml:space="preserve"
     style="font-size:19.93121719px;font-style:normal;font-variant:normal;font-weight:normal;font-stretch:normal;text-align:start;line-height:125%;writing-mode:lr-tb;text-anchor:start;fill:#89b1c5;fill-opacity:1;stroke:none;stroke-width:1px;stroke-linecap:butt;stroke-linejoin:miter;stroke-opacity:1;font-family:Bitstream Vera Sans"
     x="487.06195"
     y="726.62439"
     id="text18416"
     sodipodi:linespacing="125%"><tspan
       sodipodi:role="line"
       id="tspan18418"
       x="487.06195"
       y="726.62439">http://aurium.cjb.net</tspan></text>
</svg>
