<?xml version="1.0" encoding="UTF-8" standalone="no"?>
<!-- Created with Inkscape (http://www.inkscape.org/) -->
<svg
   xmlns:dc="http://purl.org/dc/elements/1.1/"
   xmlns:cc="http://creativecommons.org/ns#"
   xmlns:rdf="http://www.w3.org/1999/02/22-rdf-syntax-ns#"
   xmlns:svg="http://www.w3.org/2000/svg"
   xmlns="http://www.w3.org/2000/svg"
   xmlns:sodipodi="http://sodipodi.sourceforge.net/DTD/sodipodi-0.dtd"
   xmlns:inkscape="http://www.inkscape.org/namespaces/inkscape"
   width="744.09448819"
   height="1052.3622047"
   id="svg2"
   sodipodi:version="0.32"
   inkscape:version="0.46"
   inkscape:export-filename="taskModel.png"
   inkscape:export-xdpi="4.4767823"
   inkscape:export-ydpi="4.4767823"
   sodipodi:docname="taskModel.svg"
   inkscape:output_extension="org.inkscape.output.svg.inkscape">
  <defs
     id="defs4">
    <marker
       inkscape:stockid="Arrow1Send"
       orient="auto"
       refY="0.0"
       refX="0.0"
       id="Arrow1Send"
       style="overflow:visible;">
      <path
         id="path3296"
         d="M 0.0,0.0 L 5.0,-5.0 L -12.5,0.0 L 5.0,5.0 L 0.0,0.0 z "
         style="fill-rule:evenodd;stroke:#000000;stroke-width:1.0pt;marker-start:none;"
         transform="scale(0.2) rotate(180) translate(6,0)" />
    </marker>
    <marker
       inkscape:stockid="Arrow2Mend"
       orient="auto"
       refY="0.0"
       refX="0.0"
       id="Arrow2Mend"
       style="overflow:visible;">
      <path
         id="path3308"
         style="font-size:12.0;fill-rule:evenodd;stroke-width:0.62500000;stroke-linejoin:round;"
         d="M 8.7185878,4.0337352 L -2.2072895,0.016013256 L 8.7185884,-4.0017078 C 6.9730900,-1.6296469 6.9831476,1.6157441 8.7185878,4.0337352 z "
         transform="scale(0.6) rotate(180) translate(0,0)" />
    </marker>
    <marker
       inkscape:stockid="Arrow1Mend"
       orient="auto"
       refY="0.0"
       refX="0.0"
       id="Arrow1Mend"
       style="overflow:visible;">
      <path
         id="path3231"
         d="M 0.0,0.0 L 5.0,-5.0 L -12.5,0.0 L 5.0,5.0 L 0.0,0.0 z "
         style="fill-rule:evenodd;stroke:#000000;stroke-width:1.0pt;marker-start:none;"
         transform="scale(0.4) rotate(180) translate(10,0)" />
    </marker>
    <marker
       inkscape:stockid="Arrow1Mstart"
       orient="auto"
       refY="0.0"
       refX="0.0"
       id="Arrow1Mstart"
       style="overflow:visible">
      <path
         id="path3210"
         d="M 0.0,0.0 L 5.0,-5.0 L -12.5,0.0 L 5.0,5.0 L 0.0,0.0 z "
         style="fill-rule:evenodd;stroke:#000000;stroke-width:1.0pt;marker-start:none"
         transform="scale(0.4) translate(10,0)" />
    </marker>
    <inkscape:perspective
       sodipodi:type="inkscape:persp3d"
       inkscape:vp_x="0 : 526.18109 : 1"
       inkscape:vp_y="0 : 1000 : 0"
       inkscape:vp_z="744.09448 : 526.18109 : 1"
       inkscape:persp3d-origin="372.04724 : 350.78739 : 1"
       id="perspective10" />
  </defs>
  <sodipodi:namedview
     id="base"
     pagecolor="#ffffff"
     bordercolor="#666666"
     borderopacity="1.0"
     gridtolerance="10000"
     guidetolerance="10"
     objecttolerance="10"
     inkscape:pageopacity="0.0"
     inkscape:pageshadow="2"
     inkscape:zoom="0.35"
     inkscape:cx="247.85714"
     inkscape:cy="840.99736"
     inkscape:document-units="px"
     inkscape:current-layer="layer1"
     showgrid="false"
     inkscape:window-width="1097"
     inkscape:window-height="769"
     inkscape:window-x="0"
     inkscape:window-y="49"
     showguides="false">
    <inkscape:grid
       type="xygrid"
       id="grid3234" />
  </sodipodi:namedview>
  <metadata
     id="metadata7">
    <rdf:RDF>
      <cc:Work
         rdf:about="">
        <dc:format>image/svg+xml</dc:format>
        <dc:type
           rdf:resource="http://purl.org/dc/dcmitype/StillImage" />
      </cc:Work>
    </rdf:RDF>
  </metadata>
  <g
     inkscape:label="Layer 1"
     inkscape:groupmode="layer"
     id="layer1">
    <path
       style="fill:none;fill-rule:evenodd;stroke:#000000;stroke-width:1px;stroke-linecap:butt;stroke-linejoin:miter;stroke-opacity:1"
       d="M 520,292.36218 L 520,292.36218"
       id="path3274" />
    <g
       id="g3231"
       transform="matrix(0.780837,0,0,0.6362263,-0.6670889,-149.19573)">
      <path
         transform="matrix(0.7777778,0,0,0.7777778,28.095238,113.38207)"
         d="M 160,452.36218 A 40,40 0 1 1 80,452.36218 A 40,40 0 1 1 160,452.36218 z"
         sodipodi:ry="40"
         sodipodi:rx="40"
         sodipodi:cy="452.36218"
         sodipodi:cx="120"
         id="path2422"
         style="fill:none;fill-opacity:1;stroke:#080000;stroke-width:10;stroke-miterlimit:4;stroke-dasharray:none;stroke-opacity:1"
         sodipodi:type="arc" />
      <path
         id="path3223"
         d="M 120,491.11218 C 120,531.11219 120,571.11218 120,611.11218"
         style="fill:none;fill-rule:evenodd;stroke:#000000;stroke-width:8.66025448;stroke-linecap:butt;stroke-linejoin:miter;stroke-miterlimit:4;stroke-dasharray:none;stroke-opacity:1" />
      <path
         id="path3225"
         d="M 80,692.36218 C 80,692.36218 80,692.36218 120,612.36218 L 160,692.36218"
         style="fill:none;fill-rule:evenodd;stroke:#000000;stroke-width:10;stroke-linecap:butt;stroke-linejoin:miter;stroke-miterlimit:4;stroke-dasharray:none;stroke-opacity:1" />
      <path
         id="path3229"
         d="M 54.285714,552.36218 C 134.28571,552.36218 174.28571,552.36218 174.28571,552.36218 L 174.28571,552.36218"
         style="fill:none;fill-rule:evenodd;stroke:#000000;stroke-width:10;stroke-linecap:butt;stroke-linejoin:miter;stroke-miterlimit:4;stroke-dasharray:none;stroke-opacity:1" />
    </g>
    <g
       id="g3239"
       transform="matrix(0.780837,0,0,0.6362263,293.61863,-197.80301)">
      <path
         transform="matrix(0.7777778,0,0,0.7777778,28.095238,113.38207)"
         d="M 160,452.36218 A 40,40 0 1 1 80,452.36218 A 40,40 0 1 1 160,452.36218 z"
         sodipodi:ry="40"
         sodipodi:rx="40"
         sodipodi:cy="452.36218"
         sodipodi:cx="120"
         id="path3241"
         style="fill:none;fill-opacity:1;stroke:#080000;stroke-width:10;stroke-miterlimit:4;stroke-dasharray:none;stroke-opacity:1"
         sodipodi:type="arc" />
      <path
         id="path3243"
         d="M 120,491.11218 C 120,531.11219 120,571.11218 120,611.11218"
         style="fill:none;fill-rule:evenodd;stroke:#000000;stroke-width:8.66025448;stroke-linecap:butt;stroke-linejoin:miter;stroke-miterlimit:4;stroke-dasharray:none;stroke-opacity:1" />
      <path
         id="path3245"
         d="M 80,692.36218 C 80,692.36218 80,692.36218 120,612.36218 L 160,692.36218"
         style="fill:none;fill-rule:evenodd;stroke:#000000;stroke-width:10;stroke-linecap:butt;stroke-linejoin:miter;stroke-miterlimit:4;stroke-dasharray:none;stroke-opacity:1" />
      <path
         id="path3247"
         d="M 54.285714,552.36218 C 134.28571,552.36218 174.28571,552.36218 174.28571,552.36218 L 174.28571,552.36218"
         style="fill:none;fill-rule:evenodd;stroke:#000000;stroke-width:10;stroke-linecap:butt;stroke-linejoin:miter;stroke-miterlimit:4;stroke-dasharray:none;stroke-opacity:1" />
    </g>
    <path
       sodipodi:type="arc"
       style="fill:none;fill-opacity:1;stroke:#080000;stroke-width:10;stroke-miterlimit:4;stroke-dasharray:none;stroke-opacity:1"
       id="path3249"
       sodipodi:cx="311.42856"
       sodipodi:cy="232.36218"
       sodipodi:rx="134.28572"
       sodipodi:ry="45.714287"
       d="M 445.71428,232.36218 A 134.28572,45.714287 0 1 1 177.14284,232.36218 A 134.28572,45.714287 0 1 1 445.71428,232.36218 z"
       transform="matrix(0.782702,0,0,0.892937,63.387112,344.87739)" />
    <g
       id="g3251"
       transform="matrix(0.780837,0,0,0.6362263,7.9043445,279.33985)">
      <path
         transform="matrix(0.7777778,0,0,0.7777778,28.095238,113.38207)"
         d="M 160,452.36218 A 40,40 0 1 1 80,452.36218 A 40,40 0 1 1 160,452.36218 z"
         sodipodi:ry="40"
         sodipodi:rx="40"
         sodipodi:cy="452.36218"
         sodipodi:cx="120"
         id="path3253"
         style="fill:none;fill-opacity:1;stroke:#080000;stroke-width:10;stroke-miterlimit:4;stroke-dasharray:none;stroke-opacity:1"
         sodipodi:type="arc" />
      <path
         id="path3255"
         d="M 120,491.11218 C 120,531.11219 120,571.11218 120,611.11218"
         style="fill:none;fill-rule:evenodd;stroke:#000000;stroke-width:8.66025448;stroke-linecap:butt;stroke-linejoin:miter;stroke-miterlimit:4;stroke-dasharray:none;stroke-opacity:1" />
      <path
         id="path3257"
         d="M 80,692.36218 C 80,692.36218 80,692.36218 120,612.36218 L 160,692.36218"
         style="fill:none;fill-rule:evenodd;stroke:#000000;stroke-width:10;stroke-linecap:butt;stroke-linejoin:miter;stroke-miterlimit:4;stroke-dasharray:none;stroke-opacity:1" />
      <path
         id="path3259"
         d="M 54.285714,552.36218 C 134.28571,552.36218 174.28571,552.36218 174.28571,552.36218 L 174.28571,552.36218"
         style="fill:none;fill-rule:evenodd;stroke:#000000;stroke-width:10;stroke-linecap:butt;stroke-linejoin:miter;stroke-miterlimit:4;stroke-dasharray:none;stroke-opacity:1" />
    </g>
    <g
       id="g3283"
       transform="translate(362.85714,-20)">
      <g
         transform="matrix(0.780837,0,0,0.6362263,130.76149,-149.23158)"
         id="g3263">
        <path
           sodipodi:type="arc"
           style="fill:none;fill-opacity:1;stroke:#080000;stroke-width:10;stroke-miterlimit:4;stroke-dasharray:none;stroke-opacity:1"
           id="path3265"
           sodipodi:cx="120"
           sodipodi:cy="452.36218"
           sodipodi:rx="40"
           sodipodi:ry="40"
           d="M 160,452.36218 A 40,40 0 1 1 80,452.36218 A 40,40 0 1 1 160,452.36218 z"
           transform="matrix(0.7777778,0,0,0.7777778,28.095238,113.38207)" />
        <path
           style="fill:none;fill-rule:evenodd;stroke:#000000;stroke-width:8.66025448;stroke-linecap:butt;stroke-linejoin:miter;stroke-miterlimit:4;stroke-dasharray:none;stroke-opacity:1"
           d="M 120,491.11218 C 120,531.11219 120,571.11218 120,611.11218"
           id="path3267" />
        <path
           style="fill:none;fill-rule:evenodd;stroke:#000000;stroke-width:10;stroke-linecap:butt;stroke-linejoin:miter;stroke-miterlimit:4;stroke-dasharray:none;stroke-opacity:1"
           d="M 80,692.36218 C 80,692.36218 80,692.36218 120,612.36218 L 160,692.36218"
           id="path3269" />
        <path
           style="fill:none;fill-rule:evenodd;stroke:#000000;stroke-width:10;stroke-linecap:butt;stroke-linejoin:miter;stroke-miterlimit:4;stroke-dasharray:none;stroke-opacity:1"
           d="M 54.285714,552.36218 C 134.28571,552.36218 174.28571,552.36218 174.28571,552.36218 L 174.28571,552.36218"
           id="path3271" />
      </g>
      <g
         transform="translate(0.7142857,1.4285714)"
         id="g3279">
        <path
           style="fill:none;fill-rule:evenodd;stroke:#000000;stroke-width:10;stroke-linecap:butt;stroke-linejoin:miter;stroke-miterlimit:4;stroke-dasharray:none;stroke-opacity:1"
           d="M 187.14286,133.07647 C 261.42857,132.36218 261.42857,132.36218 261.42857,132.36218"
           id="path3275" />
        <rect
           style="fill:#000000;fill-opacity:1;stroke:#050006;stroke-width:10;stroke-miterlimit:4;stroke-dasharray:none;stroke-opacity:0.96982757"
           id="rect3277"
           width="25.714285"
           height="10"
           x="211.42857"
           y="114.50504" />
      </g>
    </g>
    <path
       style="fill:none;fill-rule:evenodd;stroke:#000000;stroke-width:10;stroke-linecap:butt;stroke-linejoin:miter;stroke-opacity:1;stroke-miterlimit:4;stroke-dasharray:none"
       d="M 128.57143,663.79075 C 251.42857,589.50504 251.42857,589.50504 251.42857,589.50504"
       id="path3293" />
    <path
       sodipodi:type="arc"
       style="fill:none;fill-opacity:1;stroke:#080000;stroke-width:10;stroke-miterlimit:4;stroke-dasharray:none;stroke-opacity:1"
       id="path3297"
       sodipodi:cx="311.42856"
       sodipodi:cy="232.36218"
       sodipodi:rx="134.28572"
       sodipodi:ry="45.714287"
       d="M 445.71428,232.36218 A 134.28572,45.714287 0 1 1 177.14284,232.36218 A 134.28572,45.714287 0 1 1 445.71428,232.36218 z"
       transform="matrix(0.782702,0,0,0.892937,76.244244,179.16311)" />
    <path
       style="fill:none;fill-rule:evenodd;stroke:#000000;stroke-width:10;stroke-linecap:butt;stroke-linejoin:miter;stroke-opacity:1;stroke-miterlimit:4;stroke-dasharray:none"
       d="M 134.28571,249.50504 C 260,352.36218 260,352.36218 260,352.36218"
       id="path3301" />
    <path
       style="fill:none;fill-rule:evenodd;stroke:#000000;stroke-width:10;stroke-linecap:butt;stroke-linejoin:miter;stroke-opacity:1;stroke-miterlimit:4;stroke-dasharray:none"
       d="M 377.14286,255.21933 C 342.85714,338.07647 342.85714,338.07647 342.85714,338.07647"
       id="path3303" />
    <path
       sodipodi:type="arc"
       style="fill:#000000;fill-opacity:1;stroke:#080000;stroke-width:10;stroke-miterlimit:4;stroke-dasharray:none;stroke-opacity:1"
       id="path3305"
       sodipodi:cx="311.42856"
       sodipodi:cy="232.36218"
       sodipodi:rx="134.28572"
       sodipodi:ry="45.714287"
       d="M 445.71428,232.36218 A 134.28572,45.714287 0 1 1 177.14284,232.36218 A 134.28572,45.714287 0 1 1 445.71428,232.36218 z"
       transform="matrix(0.782702,0,0,0.892937,259.10139,253.44882)" />
    <path
       style="fill:none;fill-rule:evenodd;stroke:#000000;stroke-width:10;stroke-linecap:butt;stroke-linejoin:miter;stroke-opacity:1;stroke-miterlimit:4;stroke-dasharray:none"
       d="M 571.42857,280.93361 C 522.85714,418.07647 522.85714,418.07647 522.85714,418.07647"
       id="path3307" />
  </g>
</svg>
